<svg width="11" height="7" viewBox="0 0 11 7" fill="none" xmlns="http://www.w3.org/2000/svg">
<path d="M10.3541 6.01354C10.2869 6.08096 10.207 6.13446 10.1191 6.17096C10.0312 6.20747 9.93692 6.22626 9.84172 6.22626C9.74652 6.22626 9.65226 6.20747 9.56434 6.17096C9.47642 6.13446 9.39658 6.08096 9.32937 6.01354L5.49981 2.18137L1.67025 6.0118C1.60308 6.07908 1.52331 6.13248 1.43551 6.16893C1.34771 6.20539 1.25358 6.22419 1.15851 6.22427C1.06344 6.22436 0.969287 6.20571 0.881421 6.1694C0.793557 6.13309 0.713704 6.07984 0.646422 6.01267C0.579139 5.9455 0.525746 5.86574 0.48929 5.77793C0.452833 5.69013 0.434028 5.59601 0.433947 5.50094C0.433867 5.40587 0.452511 5.31171 0.488819 5.22385C0.525127 5.13598 0.578386 5.05613 0.645554 4.98885L4.98746 0.646936C5.05467 0.57951 5.13451 0.526012 5.22243 0.489509C5.31035 0.453006 5.40461 0.434216 5.49981 0.434216C5.59501 0.434216 5.68926 0.453006 5.77718 0.489509C5.8651 0.526012 5.94495 0.57951 6.01215 0.646936L10.3541 4.98885C10.4897 5.1245 10.5659 5.30848 10.5659 5.50032C10.5659 5.69216 10.4897 5.87614 10.3541 6.0118V6.01354Z" fill="white" stroke="white" stroke-width="0.8"/>
</svg>
