<svg width="53" height="63" viewBox="0 0 53 63" fill="none" xmlns="http://www.w3.org/2000/svg">
<path d="M30.4907 29.2737C30.0962 28.7952 29.7181 28.354 29.3633 27.8965C29.3096 27.8265 29.3306 27.6608 29.3703 27.5557C29.8558 26.2439 30.3529 24.9345 30.8408 23.625C31.5737 21.655 32.3463 19.6966 33.0209 17.7056C33.7678 15.5045 34.1296 13.2287 33.9709 10.8945C33.9102 9.98885 33.7585 9.08086 33.2776 8.28958C32.6801 7.30923 31.8678 6.55763 30.7404 6.20984C30.5327 6.14448 30.3086 6.13281 29.9958 6.07913C30.6541 5.18047 31.2819 4.31917 31.5784 3.25712C30.8945 3.51155 30.4626 4.10209 29.9001 4.58059C29.5663 3.98305 29.2886 3.37617 28.7074 2.98403C28.684 3.99939 28.9898 4.93072 29.3889 5.86205C29.0411 5.88539 28.7027 5.91107 28.3666 5.92741C26.5716 6.0161 25.2715 6.90309 24.3518 8.41095C23.6119 9.62472 23.3435 10.9739 23.1357 12.3557C22.7856 14.6852 23.0634 16.9797 23.4322 19.2741C23.7753 21.4052 24.1347 23.5363 24.4849 25.6674C24.5245 25.9078 24.6319 26.2019 24.5362 26.3747C24.4615 26.5077 24.1161 26.496 23.8896 26.5334C22.7296 26.7295 21.6372 27.1123 20.6265 27.7121C20.4328 27.8265 20.2974 27.7775 20.141 27.6655C18.9669 26.8322 17.8815 25.8915 16.9525 24.7944C15.8461 23.4873 14.7981 22.1288 13.7244 20.7937C13.0101 19.9067 12.2562 19.0477 11.2268 18.5342C10.0037 17.925 8.70593 17.7103 7.48283 18.5085C6.32042 19.2671 5.97963 20.4296 6.1687 21.7694C6.27607 22.5373 6.58884 23.2282 6.99032 23.8818C7.90298 25.371 9.08873 26.6104 10.4729 27.6655C11.6867 28.5898 12.9658 29.4091 14.3429 30.0673C14.3896 30.0906 14.4316 30.121 14.4526 30.2167C14.0091 30.0883 13.5587 29.9833 13.1245 29.8269C10.4636 28.8722 8.17374 27.376 6.45346 25.1002C5.58515 23.9518 5.02029 22.6563 5.03429 21.1952C5.03896 20.6536 5.2327 20.1028 5.39842 19.5752C5.52213 19.1854 5.53847 19.1668 5.14867 19.1108C4.56279 19.0244 3.97692 18.931 3.39805 18.8073C3.09694 18.742 2.80984 18.6066 2.51807 18.5015C2.51807 18.4665 2.51807 18.4292 2.5204 18.3942C3.13895 18.3521 3.75751 18.3101 4.42041 18.2658C4.27102 17.6122 4.12864 16.9937 3.98625 16.3728C4.01426 16.3611 4.04461 16.3518 4.07262 16.3401C4.74486 17.0824 5.18134 17.9763 5.65051 18.966C6.05199 18.3545 6.62152 18.0557 6.73823 17.2878C7.02533 15.3784 7.68357 13.5601 8.46318 11.7955C9.07473 10.4113 9.81232 9.09486 10.697 7.86243C12.3589 5.5446 14.4526 3.70995 16.9712 2.39582C19.5551 1.04434 22.3211 0.288071 25.2481 0.0896675C27.1878 -0.0433797 29.1205 -0.0457138 31.0485 0.201707C33.2263 0.481807 35.3107 1.10269 37.3041 2.02235C40.049 3.28747 42.4066 5.0801 44.4186 7.32557C46.7248 9.89548 48.2583 12.8785 48.9632 16.2584C49.381 18.2611 49.5468 20.2965 49.3507 22.3412C49.1359 24.603 48.5897 26.7831 47.7051 28.8886C46.4166 31.9556 44.5516 34.6586 42.5466 37.2729C41.1905 39.0398 39.7479 40.7414 38.3591 42.485C36.7532 44.4994 35.166 46.5278 33.5718 48.5515C33.3734 48.8013 33.1843 49.058 33.0186 49.2798C32.5424 48.953 32.1106 48.6752 31.7044 48.3648C31.5924 48.2784 31.485 48.0964 31.4897 47.961C31.5737 45.3187 31.6741 42.6741 31.7744 40.0318C31.7744 40.0015 31.7908 39.9711 31.7978 39.9408C32.519 40.529 33.2356 41.1149 33.9499 41.7008C33.9919 41.6634 34.0339 41.6284 34.0759 41.5911C33.8542 40.9305 33.3477 40.4193 33.0209 39.7844C33.6278 39.5113 34.237 39.2382 34.8439 38.9628C34.8299 38.9138 34.8159 38.8648 34.8042 38.8134C33.8122 38.608 32.8458 38.8858 31.8468 39.0585C31.8468 38.636 31.8235 38.2345 31.8515 37.8377C31.9495 36.3929 31.9659 34.9504 31.7698 33.5125C31.7394 33.2931 31.7978 33.2091 32.0429 33.1764C34.7785 32.8099 37.4161 32.1167 39.8857 30.8492C41.8954 29.8175 43.4546 28.319 44.5213 26.3233C44.9718 25.4807 45.3126 24.596 45.1399 23.6227C45.0512 23.1302 44.8411 22.6587 44.6824 22.1685C45.5133 21.7974 46.426 21.3889 47.3386 20.9804C47.3246 20.9244 47.3106 20.866 47.2966 20.81C46.6197 20.642 45.9498 20.9057 45.2799 20.9407C45.2799 20.4342 45.2869 19.9464 45.2752 19.4609C45.2706 19.3068 45.2099 19.1551 45.1772 19.001C45.0722 19.1178 44.9204 19.2158 44.8668 19.3512C44.6287 19.9534 44.4186 20.5673 44.1992 21.1765C44.1478 21.3212 44.0965 21.4636 44.0311 21.6456C43.8234 21.5033 43.6507 21.3866 43.4803 21.2698C42.64 20.684 41.7273 20.621 40.7516 20.8334C39.7246 21.0574 38.896 21.641 38.1677 22.3319C36.7462 23.6787 35.3854 25.0885 34.0059 26.4774C32.9439 27.5464 31.7674 28.4707 30.4907 29.276V29.2737Z" fill="#06B906"/>
<path d="M17.6083 50.1064C17.795 50.2114 17.9701 50.3631 18.1731 50.4168C18.9084 50.6106 19.6507 50.7716 20.3906 50.942C20.498 50.9677 20.6077 50.9887 20.715 51.012C20.4816 51.6026 20.1805 52.1604 20.0405 52.758C19.8141 53.7337 19.6086 54.7303 19.541 55.727C19.3846 58.0355 19.709 60.3067 20.2762 62.5475C20.3089 62.6758 20.3346 62.8042 20.3766 63.0003C20.1082 63.0003 19.8794 63.0003 19.6507 63.0003C13.7032 62.9956 7.75578 62.9933 1.80833 62.9886C1.48388 62.9886 1.15944 62.9886 0.834988 62.9979C0.487198 63.005 0.225772 62.8579 0.067049 62.5545C-0.0963423 62.2417 0.067049 61.9896 0.256116 61.7585C1.36484 60.4094 2.47824 59.0625 3.5893 57.7157C6.26425 54.4783 8.9392 51.2408 11.6141 48.0033C13.6822 45.5011 15.7526 42.9965 17.8207 40.4943C18.0914 40.1652 18.3715 39.8431 18.6166 39.4976C18.689 39.3949 18.7053 39.2082 18.668 39.0798C18.1778 37.3502 17.7226 35.6206 18.0214 33.7953C18.1008 33.3097 18.1778 32.8242 18.2688 32.3411C18.2992 32.1823 18.3692 32.0283 18.4509 31.8789C18.0681 34.0287 18.4719 36.0734 19.3122 38.0341C19.7417 39.0401 20.3019 39.9878 20.8177 40.9565C21.6277 42.476 22.447 43.9932 23.2663 45.5081C23.4857 45.9119 23.7284 46.3017 23.9455 46.7055C24.0506 46.9016 24.1813 46.9086 24.3633 46.8479C25.8899 46.3437 27.4047 46.4044 28.8939 46.9856C29.3024 47.1467 29.6806 47.3894 30.061 47.6252C26.5364 47.0883 23.4133 47.7092 21.0208 50.6969C20.5563 49.6092 20.0615 48.6312 19.2935 47.6975C19.1745 48.5145 19.4523 49.1657 19.632 49.88C18.9621 49.9103 18.3015 49.9406 17.641 49.971C17.6293 50.0153 17.6153 50.0597 17.6036 50.1064H17.6083Z" fill="#06B906"/>
<path d="M48.8905 45.9165C49.1846 45.9165 49.3597 45.9165 49.5371 45.9165C50.298 45.9188 51.0613 45.9095 51.8223 45.9305C52.3988 45.9468 52.5925 46.1359 52.5995 46.7054C52.6159 47.8702 52.6112 49.0349 52.6135 50.202C52.6205 53.9903 52.6275 57.7763 52.6299 61.5647C52.6299 61.8448 52.6252 62.1272 52.5855 62.4026C52.5412 62.7248 52.3311 62.9208 52.0067 62.9652C51.8082 62.9909 51.6052 62.9932 51.4021 62.9932C46.1946 62.9955 40.9847 62.9979 35.7772 63.0002C35.4995 63.0002 35.2217 63.0002 34.8926 63.0002C34.9696 62.6524 35.0443 62.3746 35.091 62.0945C35.5952 59.1535 35.8472 56.2078 35.1914 53.2527C35.1657 53.1337 35.1563 52.9983 35.0957 52.8979C34.9276 52.6225 35.0186 52.4895 35.2941 52.3704C37.2547 51.5255 39.2154 50.6758 41.1691 49.8145C42.8591 49.0699 44.5467 48.3136 46.0475 47.2189C47.1096 46.444 48.0059 45.5267 48.4587 44.2382C49.103 42.4082 48.5077 40.6226 47.1679 39.3831C46.5821 38.8416 45.9262 38.4331 45.1349 38.2674C45.0438 38.2487 44.9575 38.2044 44.8291 38.1577C46.0335 37.901 47.4107 38.5335 48.7878 39.955C49.3831 39.1567 49.9783 38.3584 50.5735 37.5625C50.6248 37.5882 50.6738 37.6139 50.7252 37.6395C50.5151 38.2441 50.305 38.851 50.088 39.4742C50.7135 39.5886 51.3111 39.7006 51.9926 39.8266C51.031 40.2725 50.0576 40.1954 49.0586 40.3355C50.1463 42.2075 50.0179 44.0515 48.8859 45.9188L48.8905 45.9165Z" fill="#06B906"/>
<path d="M25.8362 55.4489C26.4757 55.5096 27.1153 55.5726 27.7782 55.6356C27.7315 55.0007 27.6872 54.3868 27.6428 53.773C27.6755 53.766 27.7082 53.759 27.7409 53.752C28.3734 54.6273 28.6185 55.6566 28.9126 56.749C27.7595 56.5483 26.7605 56.1118 25.7988 55.5796C25.8105 55.5353 25.8245 55.4932 25.8362 55.4489Z" fill="#06B906"/>
<path d="M30.6515 14.9541C30.243 13.9131 30.0376 12.8861 30.0166 11.8217C30.0469 11.8077 30.0773 11.7913 30.1076 11.7773C30.3971 12.3119 30.6888 12.8464 30.9969 13.4136C31.5245 13.0215 32.0427 12.6363 32.5632 12.2512C32.199 13.3366 31.4218 14.0998 30.6538 14.9541H30.6515Z" fill="#06B906"/>
<path d="M41.6103 46.9875C40.5576 46.5184 39.6216 46.0305 38.772 45.2486C39.4816 45.2346 40.0464 45.5427 40.7047 45.6944C40.7887 45.0759 40.8727 44.4666 40.9544 43.8574C41.4773 44.8261 41.5473 45.8718 41.6103 46.9875Z" fill="#06B906"/>
<path d="M36.8182 29.1294C36.6035 28.0277 36.6315 26.982 36.8859 25.9409C36.9163 25.9339 36.9489 25.9269 36.9793 25.9199C37.1404 26.5081 37.2991 27.0987 37.4718 27.7266C38.0763 27.4675 38.6599 27.2177 39.2458 26.968C39.2621 26.9983 39.2784 27.0286 39.2948 27.0613C38.5875 27.8713 37.7449 28.5155 36.8182 29.1294Z" fill="#06B906"/>
<path d="M25.4137 10.2272C25.8712 10.4396 26.3334 10.6426 26.7862 10.8644C27.1457 11.0418 27.169 11.0394 27.26 10.6356C27.3464 10.2552 27.4281 9.87469 27.5191 9.49423C27.5495 9.37052 27.6008 9.24914 27.6779 9.13477C27.965 10.2038 27.9766 11.2752 27.8716 12.4329C26.9286 11.7747 26.0346 11.1748 25.353 10.3275C25.3717 10.2925 25.3927 10.2598 25.4114 10.2248L25.4137 10.2272Z" fill="#06B906"/>
<path d="M33.3778 57.9053C32.4488 57.2938 31.6038 56.6285 30.8872 55.8162C30.9035 55.7836 30.9176 55.7509 30.9339 55.7182C31.2957 55.8652 31.6575 56.0123 32.0169 56.1617C32.2387 56.2551 32.4604 56.3508 32.6822 56.4465C32.7522 56.2294 32.8222 56.0123 32.8899 55.7952C32.9996 55.4474 33.107 55.0996 33.2214 54.7285C33.5178 55.2117 33.5645 56.2551 33.3778 57.9053Z" fill="#06B906"/>
<path d="M25.8828 15.4413C26.2516 15.796 26.6181 16.1485 26.9869 16.5033C27.2506 16.7554 27.2856 16.739 27.47 16.4333C27.7431 15.9804 28.0396 15.544 28.3757 15.0234C28.4107 15.782 28.0676 16.9188 27.463 18.1652C26.9775 17.8805 26.0042 16.2909 25.8851 15.4413H25.8828Z" fill="#06B906"/>
<path d="M11.1357 22.0242C10.146 22.4654 9.20531 22.9439 8.07324 22.9882C8.32533 22.7968 8.57509 22.6031 8.82951 22.4163C9.08393 22.2296 9.34303 22.0499 9.59511 21.8725C9.10727 21.3776 8.66378 20.9271 8.22263 20.479L8.28332 20.4043C9.32669 20.7428 10.223 21.3473 11.138 22.0219L11.1357 22.0242Z" fill="#06B906"/>
<path d="M23.4296 32.0079C22.853 31.0859 22.5193 30.0869 22.3115 29.0412C22.3442 29.0201 22.3792 28.9991 22.4119 28.9805C22.776 29.4823 23.1402 29.9818 23.4926 30.4697C23.9454 30.0192 24.4006 29.5663 24.8768 29.0902C24.9375 29.6107 24.1929 31.0835 23.4273 32.0079H23.4296Z" fill="#06B906"/>
<path d="M30.9829 50.0498C30.8406 51.1352 30.3924 52.1108 29.9302 53.1169C29.2557 52.2112 28.6511 51.3219 28.4014 50.2155C28.7772 50.5913 29.16 50.9578 29.5241 51.3452C29.7599 51.595 29.8135 51.5997 30.0096 51.3079C30.3037 50.8667 30.6071 50.4326 30.9059 49.9961L30.9853 50.0498H30.9829Z" fill="#06B906"/>
<path d="M42.4906 25.31C41.3445 25.1139 40.3922 24.5467 39.4375 23.9095C40.4389 23.3679 41.4239 22.9221 42.5373 22.7891C42.0261 23.1719 41.5149 23.557 40.9734 23.9631C41.4752 24.409 41.9817 24.8595 42.4883 25.31H42.4906Z" fill="#06B906"/>
<path d="M11.4274 24.5344C11.9899 24.7701 12.5501 25.0059 13.1453 25.2556C13.3064 24.6487 13.4604 24.0675 13.6145 23.4863C13.6518 23.491 13.6915 23.4957 13.7289 23.5003C13.9833 24.5087 13.9623 25.5311 13.8479 26.6141C12.8582 26.0819 12.0669 25.3957 11.3667 24.5997C11.3877 24.5764 11.4064 24.553 11.4274 24.532V24.5344Z" fill="#06B906"/>
<path d="M43.41 42.0446C43.8605 41.6035 44.3017 41.174 44.7405 40.7445C44.7638 40.7632 44.7895 40.7819 44.8129 40.8005C44.5001 41.8182 43.9399 42.7005 43.256 43.6085C42.8102 42.5885 42.3457 41.6595 42.2383 40.6091L42.334 40.5508C42.6794 41.0293 43.0226 41.5078 43.41 42.047V42.0446Z" fill="#06B906"/>
<path d="M22.1577 35.135C21.2334 34.6588 20.3091 34.185 19.3848 33.7088C19.4011 33.6621 19.4198 33.6131 19.4361 33.5664C20.0523 33.6761 20.6686 33.7858 21.3128 33.9002C21.4108 33.249 21.2288 32.6047 21.5065 31.9512C21.9757 32.9829 22.1484 34.0146 22.2511 35.0579C22.2184 35.0836 22.1858 35.1093 22.1554 35.135H22.1577Z" fill="#06B906"/>
<path d="M23.4299 37.6835C23.7123 38.6942 23.9224 39.7119 23.8757 40.8953C22.9374 40.3141 22.0644 39.7749 21.1914 39.2357C21.2124 39.1844 21.2311 39.133 21.2521 39.0817C21.8333 39.224 22.4168 39.3641 23.0214 39.5111C23.1171 38.9089 23.2198 38.2857 23.3202 37.6602C23.3575 37.6672 23.3949 37.6742 23.4322 37.6812L23.4299 37.6835Z" fill="#06B906"/>
<path d="M27.1341 35.1342C26.3965 36.0189 25.5235 36.6257 24.5782 37.2256C24.4428 36.1332 24.4615 35.0852 24.8092 34.0488C24.9189 34.553 25.0497 35.0525 25.1314 35.5614C25.1757 35.8415 25.2737 35.8695 25.5048 35.7668C25.932 35.5777 26.3661 35.405 26.8003 35.2276C26.889 35.1926 26.9847 35.1762 27.1341 35.1342Z" fill="#06B906"/>
</svg>
