<svg width="53" height="63" viewBox="0 0 53 63" fill="none" xmlns="http://www.w3.org/2000/svg">
<path d="M30.4904 29.2737C30.0959 28.7952 29.7178 28.354 29.363 27.8965C29.3093 27.8265 29.3303 27.6608 29.37 27.5557C29.8555 26.2439 30.3527 24.9345 30.8405 23.625C31.5735 21.655 32.3461 19.6966 33.0206 17.7056C33.7676 15.5045 34.1294 13.2287 33.9706 10.8945C33.91 9.98885 33.7582 9.08086 33.2774 8.28958C32.6799 7.30923 31.8676 6.55763 30.7402 6.20984C30.5324 6.14448 30.3083 6.13281 29.9956 6.07913C30.6538 5.18047 31.2817 4.31917 31.5781 3.25712C30.8942 3.51155 30.4624 4.10209 29.8999 4.58059C29.5661 3.98305 29.2883 3.37617 28.7071 2.98403C28.6838 3.99939 28.9895 4.93072 29.3887 5.86205C29.0409 5.88539 28.7024 5.91107 28.3663 5.92741C26.5714 6.0161 25.2712 6.90309 24.3516 8.41095C23.6116 9.62472 23.3432 10.9739 23.1355 12.3557C22.7853 14.6852 23.0631 16.9797 23.4319 19.2741C23.775 21.4052 24.1345 23.5363 24.4846 25.6674C24.5243 25.9078 24.6317 26.2019 24.536 26.3747C24.4613 26.5077 24.1158 26.496 23.8894 26.5334C22.7293 26.7295 21.6369 27.1123 20.6262 27.7121C20.4325 27.8265 20.2971 27.7775 20.1407 27.6655C18.9667 26.8322 17.8813 25.8915 16.9523 24.7944C15.8459 23.4873 14.7978 22.1288 13.7241 20.7937C13.0099 19.9067 12.2559 19.0477 11.2266 18.5342C10.0035 17.925 8.70568 17.7103 7.48258 18.5085C6.32017 19.2671 5.97938 20.4296 6.16845 21.7694C6.27582 22.5373 6.5886 23.2282 6.99008 23.8818C7.90273 25.371 9.08849 26.6104 10.4726 27.6655C11.6864 28.5898 12.9655 29.4091 14.3427 30.0673C14.3894 30.0906 14.4314 30.121 14.4524 30.2167C14.0089 30.0883 13.5584 29.9833 13.1243 29.8269C10.4633 28.8722 8.1735 27.376 6.45322 25.1002C5.58491 23.9518 5.02004 22.6563 5.03405 21.1952C5.03872 20.6536 5.23245 20.1028 5.39818 19.5752C5.52189 19.1854 5.53823 19.1668 5.14842 19.1108C4.56255 19.0244 3.97667 18.931 3.3978 18.8073C3.09669 18.742 2.80959 18.6066 2.51782 18.5015C2.51782 18.4665 2.51782 18.4292 2.52016 18.3942C3.13871 18.3521 3.75726 18.3101 4.42016 18.2658C4.27078 17.6122 4.12839 16.9937 3.98601 16.3728C4.01402 16.3611 4.04436 16.3518 4.07237 16.3401C4.74461 17.0824 5.1811 17.9763 5.65027 18.966C6.05174 18.3545 6.62128 18.0557 6.73799 17.2878C7.02509 15.3784 7.68332 13.5601 8.46293 11.7955C9.07448 10.4113 9.81208 9.09486 10.6967 7.86243C12.3586 5.5446 14.4524 3.70995 16.971 2.39582C19.5549 1.04434 22.3209 0.288071 25.2479 0.0896675C27.1876 -0.0433797 29.1203 -0.0457138 31.0483 0.201707C33.2261 0.481807 35.3105 1.10269 37.3038 2.02235C40.0488 3.28747 42.4063 5.0801 44.4184 7.32557C46.7245 9.89548 48.2581 12.8785 48.963 16.2584C49.3808 18.2611 49.5465 20.2965 49.3504 22.3412C49.1357 24.603 48.5895 26.7831 47.7049 28.8886C46.4164 31.9556 44.5514 34.6586 42.5464 37.2729C41.1902 39.0398 39.7477 40.7414 38.3589 42.485C36.753 44.4994 35.1657 46.5278 33.5715 48.5515C33.3731 48.8013 33.184 49.058 33.0183 49.2798C32.5421 48.953 32.1103 48.6752 31.7042 48.3648C31.5921 48.2784 31.4848 48.0964 31.4894 47.961C31.5735 45.3187 31.6738 42.6741 31.7742 40.0318C31.7742 40.0015 31.7905 39.9711 31.7975 39.9408C32.5188 40.529 33.2354 41.1149 33.9496 41.7008C33.9917 41.6634 34.0337 41.6284 34.0757 41.5911C33.8539 40.9305 33.3474 40.4193 33.0206 39.7844C33.6275 39.5113 34.2367 39.2382 34.8436 38.9628C34.8296 38.9138 34.8156 38.8648 34.8039 38.8134C33.8119 38.608 32.8456 38.8858 31.8466 39.0585C31.8466 38.636 31.8232 38.2345 31.8512 37.8377C31.9493 36.3929 31.9656 34.9504 31.7695 33.5125C31.7392 33.2931 31.7975 33.2091 32.0426 33.1764C34.7783 32.8099 37.4159 32.1167 39.8854 30.8492C41.8951 29.8175 43.4543 28.319 44.5211 26.3233C44.9715 25.4807 45.3123 24.596 45.1396 23.6227C45.0509 23.1302 44.8408 22.6587 44.6821 22.1685C45.5131 21.7974 46.4257 21.3889 47.3384 20.9804C47.3244 20.9244 47.3104 20.866 47.2964 20.81C46.6195 20.642 45.9496 20.9057 45.2797 20.9407C45.2797 20.4342 45.2867 19.9464 45.275 19.4609C45.2703 19.3068 45.2096 19.1551 45.177 19.001C45.0719 19.1178 44.9202 19.2158 44.8665 19.3512C44.6284 19.9534 44.4184 20.5673 44.1989 21.1765C44.1476 21.3212 44.0962 21.4636 44.0309 21.6456C43.8231 21.5033 43.6504 21.3866 43.48 21.2698C42.6397 20.684 41.7271 20.621 40.7514 20.8334C39.7244 21.0574 38.8957 21.641 38.1675 22.3319C36.746 23.6787 35.3852 25.0885 34.0057 26.4774C32.9436 27.5464 31.7672 28.4707 30.4904 29.276V29.2737Z" fill="#06B906"/>
<path d="M17.6083 50.1064C17.795 50.2114 17.9701 50.3631 18.1731 50.4168C18.9084 50.6106 19.6507 50.7716 20.3906 50.942C20.498 50.9677 20.6077 50.9887 20.715 51.012C20.4816 51.6026 20.1805 52.1604 20.0405 52.758C19.8141 53.7337 19.6086 54.7303 19.541 55.727C19.3846 58.0355 19.709 60.3067 20.2762 62.5475C20.3089 62.6758 20.3346 62.8042 20.3766 63.0003C20.1082 63.0003 19.8794 63.0003 19.6507 63.0003C13.7032 62.9956 7.75578 62.9933 1.80833 62.9886C1.48388 62.9886 1.15944 62.9886 0.834988 62.9979C0.487198 63.005 0.225772 62.8579 0.067049 62.5545C-0.0963423 62.2417 0.067049 61.9896 0.256116 61.7585C1.36484 60.4094 2.47824 59.0625 3.5893 57.7157C6.26425 54.4783 8.9392 51.2408 11.6141 48.0033C13.6822 45.5011 15.7526 42.9965 17.8207 40.4943C18.0914 40.1652 18.3715 39.8431 18.6166 39.4976C18.689 39.3949 18.7053 39.2082 18.668 39.0798C18.1778 37.3502 17.7226 35.6206 18.0214 33.7953C18.1008 33.3097 18.1778 32.8242 18.2688 32.3411C18.2992 32.1823 18.3692 32.0283 18.4509 31.8789C18.0681 34.0287 18.4719 36.0734 19.3122 38.0341C19.7417 39.0401 20.3019 39.9878 20.8177 40.9565C21.6277 42.476 22.447 43.9932 23.2663 45.5081C23.4857 45.9119 23.7284 46.3017 23.9455 46.7055C24.0506 46.9016 24.1813 46.9086 24.3633 46.8479C25.8899 46.3437 27.4047 46.4044 28.8939 46.9856C29.3024 47.1467 29.6806 47.3894 30.061 47.6252C26.5364 47.0883 23.4133 47.7092 21.0208 50.6969C20.5563 49.6092 20.0615 48.6312 19.2935 47.6975C19.1745 48.5145 19.4523 49.1657 19.632 49.88C18.9621 49.9103 18.3015 49.9406 17.641 49.971C17.6293 50.0153 17.6153 50.0597 17.6036 50.1064H17.6083Z" fill="#06B906"/>
<path d="M48.8907 45.9165C49.1848 45.9165 49.3598 45.9165 49.5372 45.9165C50.2982 45.9188 51.0614 45.9095 51.8224 45.9305C52.3989 45.9468 52.5926 46.1359 52.5996 46.7054C52.616 47.8702 52.6113 49.0349 52.6137 50.202C52.6207 53.9903 52.6277 57.7763 52.63 61.5647C52.63 61.8448 52.6253 62.1272 52.5856 62.4026C52.5413 62.7248 52.3312 62.9208 52.0068 62.9652C51.8084 62.9909 51.6053 62.9932 51.4022 62.9932C46.1947 62.9955 40.9849 62.9979 35.7773 63.0002C35.4996 63.0002 35.2218 63.0002 34.8927 63.0002C34.9697 62.6524 35.0444 62.3746 35.0911 62.0945C35.5953 59.1535 35.8474 56.2078 35.1915 53.2527C35.1658 53.1337 35.1565 52.9983 35.0958 52.8979C34.9277 52.6225 35.0187 52.4895 35.2942 52.3704C37.2549 51.5255 39.2156 50.6758 41.1693 49.8145C42.8592 49.0699 44.5468 48.3136 46.0477 47.2189C47.1097 46.444 48.006 45.5267 48.4588 44.2382C49.1031 42.4082 48.5079 40.6226 47.1681 39.3831C46.5822 38.8416 45.9263 38.4331 45.135 38.2674C45.044 38.2487 44.9576 38.2044 44.8292 38.1577C46.0337 37.901 47.4108 38.5335 48.788 39.955C49.3832 39.1567 49.9784 38.3584 50.5736 37.5625C50.625 37.5882 50.674 37.6139 50.7253 37.6395C50.5152 38.2441 50.3052 38.851 50.0881 39.4742C50.7136 39.5886 51.3112 39.7006 51.9928 39.8266C51.0311 40.2725 50.0577 40.1954 49.0587 40.3355C50.1464 42.2075 50.0181 44.0515 48.886 45.9188L48.8907 45.9165Z" fill="#06B906"/>
<path d="M25.8362 55.4489C26.4757 55.5096 27.1153 55.5726 27.7782 55.6356C27.7315 55.0007 27.6872 54.3868 27.6428 53.773C27.6755 53.766 27.7082 53.759 27.7409 53.752C28.3734 54.6273 28.6185 55.6566 28.9126 56.749C27.7595 56.5483 26.7605 56.1118 25.7988 55.5796C25.8105 55.5353 25.8245 55.4932 25.8362 55.4489Z" fill="#06B906"/>
<path d="M30.6516 14.9541C30.2431 13.9131 30.0377 12.8861 30.0167 11.8217C30.0471 11.8077 30.0774 11.7913 30.1078 11.7773C30.3972 12.3119 30.689 12.8464 30.9971 13.4136C31.5246 13.0215 32.0428 12.6363 32.5633 12.2512C32.1992 13.3366 31.4219 14.0998 30.654 14.9541H30.6516Z" fill="#06B906"/>
<path d="M41.6104 46.9875C40.5577 46.5184 39.6217 46.0305 38.7721 45.2486C39.4817 45.2346 40.0465 45.5427 40.7048 45.6944C40.7888 45.0759 40.8728 44.4666 40.9545 43.8574C41.4774 44.8261 41.5474 45.8718 41.6104 46.9875Z" fill="#06B906"/>
<path d="M36.8184 29.1294C36.6036 28.0277 36.6316 26.982 36.8861 25.9409C36.9164 25.9339 36.9491 25.9269 36.9794 25.9199C37.1405 26.5081 37.2992 27.0987 37.4719 27.7266C38.0765 27.4675 38.66 27.2177 39.2459 26.968C39.2622 26.9983 39.2786 27.0286 39.2949 27.0613C38.5877 27.8713 37.745 28.5155 36.8184 29.1294Z" fill="#06B906"/>
<path d="M25.4137 10.2272C25.8712 10.4396 26.3334 10.6426 26.7862 10.8644C27.1457 11.0418 27.169 11.0394 27.26 10.6356C27.3464 10.2552 27.4281 9.87469 27.5191 9.49423C27.5495 9.37052 27.6008 9.24914 27.6779 9.13477C27.965 10.2038 27.9766 11.2752 27.8716 12.4329C26.9286 11.7747 26.0346 11.1748 25.353 10.3275C25.3717 10.2925 25.3927 10.2598 25.4114 10.2248L25.4137 10.2272Z" fill="#06B906"/>
<path d="M33.3779 57.9053C32.4489 57.2938 31.6039 56.6285 30.8873 55.8162C30.9037 55.7836 30.9177 55.7509 30.934 55.7182C31.2958 55.8652 31.6576 56.0123 32.0171 56.1617C32.2388 56.2551 32.4606 56.3508 32.6823 56.4465C32.7523 56.2294 32.8223 56.0123 32.89 55.7952C32.9997 55.4474 33.1071 55.0996 33.2215 54.7285C33.5179 55.2117 33.5646 56.2551 33.3779 57.9053Z" fill="#06B906"/>
<path d="M25.8828 15.4413C26.2516 15.796 26.6181 16.1485 26.9869 16.5033C27.2506 16.7554 27.2856 16.739 27.47 16.4333C27.7431 15.9804 28.0396 15.544 28.3757 15.0234C28.4107 15.782 28.0676 16.9188 27.463 18.1652C26.9775 17.8805 26.0042 16.2909 25.8851 15.4413H25.8828Z" fill="#06B906"/>
<path d="M11.1357 22.0242C10.146 22.4654 9.20531 22.9439 8.07324 22.9882C8.32533 22.7968 8.57509 22.6031 8.82951 22.4163C9.08393 22.2296 9.34303 22.0499 9.59511 21.8725C9.10727 21.3776 8.66378 20.9271 8.22263 20.479L8.28332 20.4043C9.32669 20.7428 10.223 21.3473 11.138 22.0219L11.1357 22.0242Z" fill="#06B906"/>
<path d="M23.4297 32.0079C22.8532 31.0859 22.5194 30.0869 22.3116 29.0412C22.3443 29.0201 22.3793 28.9991 22.412 28.9805C22.7761 29.4823 23.1403 29.9818 23.4927 30.4697C23.9456 30.0192 24.4007 29.5663 24.8769 29.0902C24.9376 29.6107 24.193 31.0835 23.4274 32.0079H23.4297Z" fill="#06B906"/>
<path d="M30.9829 50.0498C30.8406 51.1352 30.3924 52.1108 29.9302 53.1169C29.2557 52.2112 28.6511 51.3219 28.4014 50.2155C28.7772 50.5913 29.16 50.9578 29.5241 51.3452C29.7599 51.595 29.8135 51.5997 30.0096 51.3079C30.3037 50.8667 30.6071 50.4326 30.9059 49.9961L30.9853 50.0498H30.9829Z" fill="#06B906"/>
<path d="M42.4903 25.31C41.3443 25.1139 40.3919 24.5467 39.4373 23.9095C40.4386 23.3679 41.4236 22.9221 42.537 22.7891C42.0258 23.1719 41.5147 23.557 40.9731 23.9631C41.475 24.409 41.9815 24.8595 42.488 25.31H42.4903Z" fill="#06B906"/>
<path d="M11.4274 24.5344C11.9899 24.7701 12.5501 25.0059 13.1453 25.2556C13.3064 24.6487 13.4604 24.0675 13.6145 23.4863C13.6518 23.491 13.6915 23.4957 13.7289 23.5003C13.9833 24.5087 13.9623 25.5311 13.8479 26.6141C12.8582 26.0819 12.0669 25.3957 11.3667 24.5997C11.3877 24.5764 11.4064 24.553 11.4274 24.532V24.5344Z" fill="#06B906"/>
<path d="M43.41 42.0446C43.8605 41.6035 44.3017 41.174 44.7405 40.7445C44.7638 40.7632 44.7895 40.7819 44.8129 40.8005C44.5001 41.8182 43.9399 42.7005 43.256 43.6085C42.8102 42.5885 42.3457 41.6595 42.2383 40.6091L42.334 40.5508C42.6794 41.0293 43.0226 41.5078 43.41 42.047V42.0446Z" fill="#06B906"/>
<path d="M22.1575 35.135C21.2332 34.6588 20.3088 34.185 19.3845 33.7088C19.4009 33.6621 19.4195 33.6131 19.4359 33.5664C20.0521 33.6761 20.6683 33.7858 21.3125 33.9002C21.4106 33.249 21.2285 32.6047 21.5063 31.9512C21.9754 32.9829 22.1482 34.0146 22.2509 35.0579C22.2182 35.0836 22.1855 35.1093 22.1552 35.135H22.1575Z" fill="#06B906"/>
<path d="M23.4296 37.6835C23.7121 38.6942 23.9221 39.7119 23.8754 40.8953C22.9371 40.3141 22.0641 39.7749 21.1912 39.2357C21.2122 39.1844 21.2308 39.133 21.2519 39.0817C21.8331 39.224 22.4166 39.3641 23.0211 39.5111C23.1168 38.9089 23.2195 38.2857 23.3199 37.6602C23.3573 37.6672 23.3946 37.6742 23.432 37.6812L23.4296 37.6835Z" fill="#06B906"/>
<path d="M27.1339 35.1342C26.3963 36.0189 25.5234 36.6257 24.578 37.2256C24.4427 36.1332 24.4613 35.0852 24.8091 34.0488C24.9188 34.553 25.0495 35.0525 25.1312 35.5614C25.1756 35.8415 25.2736 35.8695 25.5047 35.7668C25.9319 35.5777 26.366 35.405 26.8002 35.2276C26.8889 35.1926 26.9846 35.1762 27.1339 35.1342Z" fill="#06B906"/>
</svg>
