<svg width="44" height="44" viewBox="0 0 44 44" fill="none" xmlns="http://www.w3.org/2000/svg">
<path fill-rule="evenodd" clip-rule="evenodd" d="M22 44C24.8891 44 27.7499 43.431 30.419 42.3254C33.0882 41.2197 35.5135 39.5992 37.5563 37.5563C39.5992 35.5135 41.2197 33.0882 42.3254 30.419C43.431 27.7499 44 24.8891 44 22C44 19.1109 43.431 16.2501 42.3254 13.581C41.2197 10.9118 39.5992 8.48654 37.5563 6.44365C35.5135 4.40076 33.0882 2.78025 30.419 1.67465C27.7499 0.569047 24.8891 -4.30507e-08 22 0C16.1652 8.69448e-08 10.5695 2.31785 6.44365 6.44365C2.31785 10.5695 0 16.1652 0 22C0 27.8348 2.31785 33.4305 6.44365 37.5563C10.5695 41.6821 16.1652 44 22 44ZM21.4329 30.8978L33.6551 16.2311L29.9004 13.1022L19.3893 25.7131L13.9504 20.2718L10.494 23.7282L17.8273 31.0616L19.7193 32.9536L21.4329 30.8978Z" fill="white"/>
</svg>
