<svg width="53" height="63" viewBox="0 0 53 63" fill="none" xmlns="http://www.w3.org/2000/svg">
<path d="M30.4899 29.2735C30.0955 28.795 29.7173 28.3538 29.3625 27.8963C29.3089 27.8263 29.3299 27.6606 29.3695 27.5555C29.855 26.2437 30.3522 24.9343 30.8401 23.6248C31.573 21.6548 32.3456 19.6965 33.0201 17.7054C33.7671 15.5043 34.1289 13.2286 33.9701 10.8944C33.9095 9.98877 33.7577 9.08079 33.2769 8.28951C32.6794 7.30917 31.8671 6.55758 30.7397 6.20979C30.5319 6.14443 30.3079 6.13276 29.9951 6.07908C30.6533 5.18043 31.2812 4.31913 31.5776 3.2571C30.8937 3.51152 30.4619 4.10206 29.8994 4.58056C29.5656 3.98302 29.2879 3.37614 28.7066 2.984C28.6833 3.99936 28.9891 4.93068 29.3882 5.862C29.0404 5.88535 28.702 5.91102 28.3659 5.92736C26.5709 6.01606 25.2708 6.90303 24.3511 8.41089C23.6112 9.62464 23.3428 10.9738 23.135 12.3556C22.7849 14.6851 23.0627 16.9795 23.4315 19.274C23.7746 21.4051 24.1341 23.5361 24.4842 25.6672C24.5239 25.9076 24.6312 26.2017 24.5355 26.3745C24.4608 26.5075 24.1154 26.4958 23.889 26.5332C22.7289 26.7292 21.6365 27.112 20.6258 27.7119C20.4321 27.8263 20.2967 27.7773 20.1403 27.6652C18.9663 26.8319 17.8809 25.8913 16.9519 24.7942C15.8455 23.4871 14.7975 22.1286 13.7238 20.7935C13.0095 19.9065 12.2556 19.0476 11.2262 18.5341C10.0032 17.9249 8.70537 17.7101 7.48228 18.5084C6.31988 19.267 5.97909 20.4294 6.16816 21.7692C6.27553 22.5371 6.5883 23.228 6.98978 23.8816C7.90243 25.3708 9.08817 26.6102 10.4723 27.6652C11.6861 28.5896 12.9652 29.4088 14.3423 30.0671C14.389 30.0904 14.431 30.1208 14.452 30.2165C14.0085 30.0881 13.5581 29.983 13.1239 29.8267C10.463 28.872 8.17319 27.3758 6.45292 25.1C5.58462 23.9516 5.01976 22.6562 5.03377 21.195C5.03843 20.6535 5.23217 20.1026 5.39789 19.5751C5.5216 19.1853 5.53794 19.1666 5.14814 19.1106C4.56227 19.0242 3.9764 18.9309 3.39753 18.8072C3.09643 18.7418 2.80933 18.6064 2.51756 18.5014C2.51756 18.4664 2.51756 18.429 2.51989 18.394C3.13844 18.352 3.75699 18.31 4.41989 18.2656C4.2705 17.6121 4.12812 16.9935 3.98573 16.3727C4.01374 16.361 4.04409 16.3516 4.0721 16.34C4.74433 17.0822 5.18082 17.9762 5.64998 18.9659C6.05145 18.3543 6.62098 18.0556 6.73769 17.2876C7.02479 15.3783 7.68302 13.56 8.46262 11.7954C9.07417 10.4112 9.81176 9.09479 10.6964 7.86236C12.3583 5.54456 14.452 3.70992 16.9706 2.3958C19.5545 1.04433 22.3204 0.288069 25.2474 0.0896668C27.1871 -0.0433794 29.1198 -0.0457135 31.0478 0.201706C33.2255 0.481803 35.3099 1.10269 37.3033 2.02234C40.0483 3.28744 42.4057 5.08006 44.4178 7.32551C46.7239 9.8954 48.2574 12.8784 48.9623 16.2583C49.3802 18.261 49.5459 20.2963 49.3498 22.3411C49.1351 24.6028 48.5889 26.7829 47.7042 28.8883C46.4158 31.9554 44.5508 34.6583 42.5458 37.2726C41.1896 39.0395 39.7471 40.7411 38.3583 42.4847C36.7524 44.4991 35.1652 46.5274 33.571 48.5512C33.3726 48.8009 33.1835 49.0577 33.0178 49.2794C32.5416 48.9526 32.1098 48.6749 31.7037 48.3644C31.5917 48.2781 31.4843 48.096 31.4889 47.9606C31.573 45.3184 31.6733 42.6738 31.7737 40.0315C31.7737 40.0012 31.7901 39.9708 31.7971 39.9405C32.5183 40.5287 33.2349 41.1146 33.9491 41.7004C33.9911 41.6631 34.0332 41.6281 34.0752 41.5907C33.8534 40.9302 33.3469 40.419 33.0201 39.7841C33.627 39.511 34.2362 39.2379 34.8431 38.9625C34.8291 38.9135 34.8151 38.8645 34.8034 38.8131C33.8114 38.6077 32.8451 38.8855 31.8461 39.0582C31.8461 38.6357 31.8227 38.2342 31.8507 37.8374C31.9488 36.3926 31.9651 34.9501 31.769 33.5123C31.7387 33.2929 31.7971 33.2088 32.0421 33.1761C34.7778 32.8097 37.4153 32.1165 39.8849 30.849C41.8946 29.8173 43.4538 28.3188 44.5205 26.3231C44.971 25.4805 45.3117 24.5958 45.139 23.6225C45.0503 23.13 44.8402 22.6585 44.6815 22.1683C45.5125 21.7972 46.4251 21.3887 47.3378 20.9802C47.3238 20.9242 47.3098 20.8659 47.2958 20.8099C46.6189 20.6418 45.949 20.9056 45.2791 20.9406C45.2791 20.4341 45.2861 19.9462 45.2744 19.4607C45.2697 19.3067 45.209 19.1549 45.1764 19.0009C45.0713 19.1176 44.9196 19.2156 44.8659 19.351C44.6278 19.9532 44.4178 20.5671 44.1984 21.1763C44.147 21.321 44.0957 21.4634 44.0303 21.6455C43.8226 21.5031 43.6498 21.3864 43.4794 21.2697C42.6392 20.6838 41.7265 20.6208 40.7508 20.8332C39.7238 21.0573 38.8952 21.6408 38.1669 22.3317C36.7454 23.6785 35.3846 25.0883 34.0052 26.4772C32.9431 27.5462 31.7667 28.4705 30.4899 29.2758V29.2735Z" fill="#06B906"/>
<path d="M17.6081 50.1062C17.7949 50.2112 17.9699 50.3629 18.173 50.4166C18.9083 50.6103 19.6505 50.7714 20.3904 50.9418C20.4978 50.9675 20.6075 50.9885 20.7149 51.0118C20.4815 51.6024 20.1804 52.1602 20.0403 52.7578C19.8139 53.7334 19.6085 54.7301 19.5408 55.7268C19.3844 58.0353 19.7089 60.3064 20.2761 62.5471C20.3087 62.6755 20.3344 62.8039 20.3764 63C20.108 63 19.8793 63 19.6505 63C13.7031 62.9953 7.75572 62.993 1.80832 62.9883C1.48387 62.9883 1.15943 62.9883 0.834982 62.9976C0.487194 63.0046 0.22577 62.8576 0.0670485 62.5542C-0.0963416 62.2414 0.0670485 61.9893 0.256114 61.7582C1.36483 60.4091 2.47822 59.0623 3.58927 57.7155C6.2642 54.478 8.93913 51.2406 11.6141 48.0031C13.6821 45.5009 15.7525 42.9964 17.8205 40.4942C18.0913 40.165 18.3714 39.8429 18.6165 39.4975C18.6888 39.3948 18.7052 39.2081 18.6678 39.0797C18.1777 37.3501 17.7225 35.6205 18.0213 33.7952C18.1006 33.3097 18.1777 32.8242 18.2687 32.341C18.299 32.1823 18.3691 32.0282 18.4508 31.8788C18.068 34.0286 18.4718 36.0733 19.3121 38.034C19.7415 39.04 20.3017 39.9877 20.8176 40.9563C21.6275 42.4759 22.4468 43.993 23.2661 45.5079C23.4855 45.9117 23.7283 46.3015 23.9453 46.7053C24.0504 46.9014 24.1811 46.9084 24.3631 46.8477C25.8897 46.3435 27.4045 46.4042 28.8937 46.9854C29.3022 47.1465 29.6803 47.3892 30.0608 47.625C26.5362 47.0881 23.4132 47.709 21.0207 50.6967C20.5562 49.609 20.0613 48.631 19.2934 47.6973C19.1743 48.5143 19.4521 49.1655 19.6318 49.8798C18.9619 49.9101 18.3014 49.9404 17.6408 49.9708C17.6291 50.0151 17.6151 50.0595 17.6035 50.1062H17.6081Z" fill="#06B906"/>
<path d="M48.8902 45.9162C49.1843 45.9162 49.3593 45.9162 49.5367 45.9162C50.2977 45.9185 51.0609 45.9092 51.8219 45.9302C52.3984 45.9465 52.5921 46.1356 52.5991 46.7051C52.6155 47.8698 52.6108 49.0346 52.6131 50.2017C52.6201 53.99 52.6271 57.776 52.6295 61.5643C52.6295 61.8444 52.6248 62.1268 52.5851 62.4022C52.5408 62.7243 52.3307 62.9204 52.0062 62.9648C51.8078 62.9904 51.6048 62.9928 51.4017 62.9928C46.1942 62.9951 40.9844 62.9974 35.777 62.9998C35.4992 62.9998 35.2214 62.9998 34.8923 62.9998C34.9693 62.652 35.044 62.3742 35.0907 62.0941C35.5949 59.1531 35.847 56.2074 35.1911 53.2524C35.1654 53.1333 35.1561 52.998 35.0954 52.8976C34.9273 52.6222 35.0184 52.4891 35.2938 52.3701C37.2545 51.5251 39.2151 50.6755 41.1688 49.8142C42.8587 49.0696 44.5463 48.3133 46.0472 47.2186C47.1092 46.4437 48.0055 45.5264 48.4584 44.2379C49.1026 42.408 48.5074 40.6223 47.1676 39.3829C46.5817 38.8414 45.9258 38.4329 45.1345 38.2672C45.0435 38.2485 44.9571 38.2042 44.8288 38.1575C46.0332 37.9007 47.4103 38.5333 48.7875 39.9548C49.3827 39.1565 49.9779 38.3582 50.5731 37.5623C50.6244 37.5879 50.6735 37.6136 50.7248 37.6393C50.5147 38.2438 50.3047 38.8507 50.0876 39.4739C50.7131 39.5883 51.3107 39.7003 51.9922 39.8264C51.0306 40.2722 50.0572 40.1952 49.0582 40.3352C50.1459 42.2072 50.0176 44.0512 48.8855 45.9185L48.8902 45.9162Z" fill="#06B906"/>
<path d="M25.836 55.4485C26.4755 55.5091 27.1151 55.5722 27.778 55.6352C27.7313 55.0003 27.687 54.3864 27.6426 53.7725C27.6753 53.7655 27.708 53.7585 27.7406 53.7515C28.3732 54.6268 28.6183 55.6562 28.9124 56.7486C27.7593 56.5478 26.7603 56.1114 25.7986 55.5792C25.8103 55.5348 25.8243 55.4928 25.836 55.4485Z" fill="#06B906"/>
<path d="M30.6513 14.9537C30.2428 13.9126 30.0374 12.8856 30.0164 11.8212C30.0467 11.8072 30.0771 11.7909 30.1074 11.7769C30.3968 12.3114 30.6886 12.8459 30.9967 13.4131C31.5242 13.021 32.0424 12.6359 32.5629 12.2507C32.1988 13.3361 31.4215 14.0994 30.6536 14.9537H30.6513Z" fill="#06B906"/>
<path d="M41.6105 46.987C40.5578 46.5178 39.6218 46.03 38.7722 45.248C39.4817 45.234 40.0466 45.5421 40.7048 45.6939C40.7889 45.0753 40.8729 44.4661 40.9546 43.8569C41.4774 44.8256 41.5475 45.8713 41.6105 46.987Z" fill="#06B906"/>
<path d="M36.8184 29.1286C36.6037 28.0268 36.6317 26.9811 36.8861 25.9401C36.9165 25.9331 36.9492 25.9261 36.9795 25.9191C37.1406 26.5073 37.2993 27.0979 37.472 27.7257C38.0765 27.4666 38.6601 27.2169 39.2459 26.9671C39.2623 26.9975 39.2786 27.0278 39.295 27.0605C38.5877 27.8705 37.7451 28.5147 36.8184 29.1286Z" fill="#06B906"/>
<path d="M25.413 10.2265C25.8705 10.4389 26.3327 10.642 26.7855 10.8637C27.145 11.0411 27.1683 11.0388 27.2593 10.635C27.3457 10.2545 27.4274 9.87407 27.5184 9.4936C27.5488 9.36989 27.6001 9.24852 27.6771 9.13415C27.9642 10.2032 27.9759 11.2746 27.8709 12.4323C26.9279 11.7741 26.0339 11.1742 25.3523 10.3269C25.371 10.2919 25.392 10.2592 25.4107 10.2242L25.413 10.2265Z" fill="#06B906"/>
<path d="M33.378 57.9043C32.449 57.2927 31.604 56.6275 30.8875 55.8152C30.9038 55.7825 30.9178 55.7498 30.9341 55.7172C31.2959 55.8642 31.6577 56.0113 32.0172 56.1606C32.2389 56.254 32.4607 56.3497 32.6824 56.4454C32.7524 56.2283 32.8225 56.0113 32.8901 55.7942C32.9999 55.4464 33.1072 55.0986 33.2216 54.7275C33.518 55.2106 33.5647 56.254 33.378 57.9043Z" fill="#06B906"/>
<path d="M25.8826 15.4409C26.2514 15.7957 26.6179 16.1482 26.9867 16.503C27.2504 16.7551 27.2854 16.7387 27.4698 16.433C27.7429 15.9801 28.0394 15.5437 28.3755 15.0231C28.4105 15.7817 28.0674 16.9185 27.4628 18.1649C26.9773 17.8801 26.004 16.2906 25.8849 15.4409H25.8826Z" fill="#06B906"/>
<path d="M11.1356 22.0236C10.1459 22.4648 9.20524 22.9433 8.07318 22.9876C8.32527 22.7962 8.57502 22.6025 8.82944 22.4157C9.08386 22.229 9.34295 22.0493 9.59504 21.8719C9.1072 21.377 8.66372 20.9266 8.22256 20.4784L8.28325 20.4037C9.32661 20.7422 10.2229 21.3467 11.1379 22.0213L11.1356 22.0236Z" fill="#06B906"/>
<path d="M23.4294 32.0071C22.8529 31.0851 22.5191 30.0861 22.3114 29.0404C22.344 29.0194 22.379 28.9984 22.4117 28.9797C22.7758 29.4815 23.14 29.981 23.4924 30.4689C23.9453 30.0184 24.4004 29.5656 24.8766 29.0894C24.9373 29.6099 24.1927 31.0828 23.4271 32.0071H23.4294Z" fill="#06B906"/>
<path d="M30.9827 50.0494C30.8403 51.1348 30.3922 52.1104 29.93 53.1165C29.2554 52.2108 28.6509 51.3215 28.4011 50.2151C28.7769 50.5909 29.1597 50.9574 29.5239 51.3448C29.7596 51.5946 29.8133 51.5993 30.0094 51.3075C30.3035 50.8663 30.6069 50.4322 30.9057 49.9957L30.985 50.0494H30.9827Z" fill="#06B906"/>
<path d="M42.4903 25.3098C41.3442 25.1138 40.3919 24.5466 39.4372 23.9093C40.4385 23.3678 41.4236 22.922 42.5369 22.7889C42.0258 23.1717 41.5146 23.5569 40.9731 23.963C41.4749 24.4088 41.9814 24.8593 42.4879 25.3098H42.4903Z" fill="#06B906"/>
<path d="M11.4278 24.5344C11.9903 24.7702 12.5505 25.0059 13.1457 25.2557C13.3068 24.6488 13.4608 24.0676 13.6149 23.4864C13.6522 23.4911 13.6919 23.4957 13.7293 23.5004C13.9837 24.5087 13.9627 25.5311 13.8483 26.6141C12.8586 26.082 12.0673 25.3957 11.3671 24.5998C11.3881 24.5764 11.4068 24.5531 11.4278 24.5321V24.5344Z" fill="#06B906"/>
<path d="M43.4097 42.0438C43.8602 41.6026 44.3013 41.1731 44.7402 40.7437C44.7635 40.7623 44.7892 40.781 44.8125 40.7997C44.4997 41.8174 43.9395 42.6997 43.2556 43.6076C42.8098 42.5876 42.3453 41.6586 42.238 40.6083L42.3337 40.5499C42.6791 41.0284 43.0222 41.5069 43.4097 42.0461V42.0438Z" fill="#06B906"/>
<path d="M22.1576 35.1345C21.2333 34.6583 20.3089 34.1845 19.3846 33.7083C19.401 33.6616 19.4196 33.6126 19.436 33.5659C20.0522 33.6756 20.6684 33.7853 21.3126 33.8997C21.4107 33.2485 21.2286 32.6042 21.5064 31.9507C21.9755 32.9824 22.1482 34.0141 22.2509 35.0574C22.2183 35.0831 22.1856 35.1088 22.1552 35.1345H22.1576Z" fill="#06B906"/>
<path d="M23.4297 37.6829C23.7121 38.6936 23.9222 39.7113 23.8755 40.8947C22.9372 40.3135 22.0642 39.7743 21.1912 39.2351C21.2122 39.1838 21.2309 39.1324 21.2519 39.0811C21.8331 39.2234 22.4167 39.3635 23.0212 39.5105C23.1169 38.9083 23.2196 38.2851 23.32 37.6596C23.3573 37.6666 23.3947 37.6736 23.432 37.6806L23.4297 37.6829Z" fill="#06B906"/>
<path d="M27.1339 35.1339C26.3963 36.0186 25.5233 36.6255 24.578 37.2253C24.4426 36.133 24.4613 35.0849 24.809 34.0486C24.9188 34.5527 25.0495 35.0522 25.1312 35.5611C25.1755 35.8412 25.2735 35.8692 25.5046 35.7665C25.9318 35.5774 26.3659 35.4047 26.8001 35.2273C26.8888 35.1923 26.9845 35.176 27.1339 35.1339Z" fill="#06B906"/>
</svg>
