<svg width="24" height="24" viewBox="0 0 24 24" fill="none" xmlns="http://www.w3.org/2000/svg">
<path d="M8.672 11.7003C9.44372 13.2941 10.7324 14.5795 12.328 15.3473C12.4457 15.4027 12.5758 15.4266 12.7055 15.4166C12.8353 15.4066 12.9602 15.3631 13.068 15.2903L15.413 13.7253C15.5165 13.6552 15.636 13.6123 15.7605 13.6008C15.885 13.5892 16.0104 13.6094 16.125 13.6593L20.512 15.5433C20.6622 15.6057 20.7876 15.7158 20.869 15.8566C20.9503 15.9974 20.983 16.1611 20.962 16.3223C20.8229 17.4076 20.2932 18.405 19.4719 19.128C18.6507 19.851 17.5941 20.25 16.5 20.2503C13.1185 20.2503 9.87548 18.907 7.48439 16.5159C5.0933 14.1249 3.75 10.8818 3.75 7.50033C3.75012 6.40601 4.149 5.34923 4.872 4.52776C5.595 3.70629 6.59256 3.17643 7.678 3.03733C7.83909 3.01656 8.00254 3.04936 8.14314 3.13069C8.28374 3.21201 8.39368 3.33733 8.456 3.48733L10.341 7.88433C10.3899 7.9972 10.4102 8.12035 10.4003 8.24295C10.3904 8.36554 10.3504 8.48381 10.284 8.58733L8.72 10.9703C8.6505 11.0779 8.60969 11.2014 8.60147 11.3292C8.59324 11.457 8.61787 11.5848 8.673 11.7003H8.672Z" stroke="#DADADA" stroke-width="1.5"/>
</svg>
