<svg width="47" height="43" viewBox="0 0 47 43" fill="none" xmlns="http://www.w3.org/2000/svg">
<path d="M21.7728 38.0557L21.7692 38.0525C15.6687 32.5363 10.807 28.1279 7.44126 24.0218C4.10275 19.949 2.5 16.4812 2.5 12.8883C2.5 7.0378 7.05802 2.5 12.925 2.5C16.2609 2.5 19.502 4.06143 21.6052 6.50499L23.5 8.70641L25.3948 6.50499C27.498 4.06143 30.7391 2.5 34.075 2.5C39.942 2.5 44.5 7.0378 44.5 12.8883C44.5 16.4812 42.8973 19.949 39.5587 24.0218C36.193 28.1279 31.3313 32.5363 25.2308 38.0525L25.2272 38.0557L23.5 39.6236L21.7728 38.0557Z" stroke="#06B906" stroke-width="5"/>
</svg>
