<svg width="24" height="24" viewBox="0 0 24 24" fill="none" xmlns="http://www.w3.org/2000/svg">
<path d="M12 21C13.1819 21 14.3522 20.7672 15.4442 20.3149C16.5361 19.8626 17.5282 19.1997 18.364 18.364C19.1997 17.5282 19.8626 16.5361 20.3149 15.4442C20.7672 14.3522 21 13.1819 21 12C21 10.8181 20.7672 9.64778 20.3149 8.55585C19.8626 7.46392 19.1997 6.47177 18.364 5.63604C17.5282 4.80031 16.5361 4.13738 15.4442 3.68508C14.3522 3.23279 13.1819 3 12 3C9.61305 3 7.32387 3.94821 5.63604 5.63604C3.94821 7.32387 3 9.61305 3 12C3 14.3869 3.94821 16.6761 5.63604 18.364C7.32387 20.0518 9.61305 21 12 21Z" stroke="white" stroke-width="1.5" stroke-linecap="round" stroke-linejoin="round"/>
<path d="M12 15C12.9946 15 13.9484 14.6049 14.6517 13.9017C15.3549 13.1984 15.75 12.2446 15.75 11.25C15.75 10.2554 15.3549 9.30161 14.6517 8.59835C13.9484 7.89509 12.9946 7.5 12 7.5C11.0054 7.5 10.0516 7.89509 9.34835 8.59835C8.64509 9.30161 8.25 10.2554 8.25 11.25C8.25 12.2446 8.64509 13.1984 9.34835 13.9017C10.0516 14.6049 11.0054 15 12 15Z" stroke="white" stroke-width="1.5" stroke-linecap="round" stroke-linejoin="round"/>
<path d="M5.98096 18.6929C6.5452 17.5813 7.40625 16.6476 8.46867 15.9954C9.53108 15.3433 10.7533 14.998 12 14.998C13.2466 14.998 14.4688 15.3433 15.5312 15.9954C16.5937 16.6476 17.4547 17.5813 18.019 18.6929" stroke="white" stroke-width="1.5" stroke-linecap="round" stroke-linejoin="round"/>
</svg>
