<svg width="44" height="51" viewBox="0 0 44 51" fill="none" xmlns="http://www.w3.org/2000/svg">
<path d="M7.33333 19.7115V1.82143C7.33333 1.33836 7.52649 0.875068 7.8703 0.533484C8.21412 0.1919 8.68044 0 9.16667 0C9.6529 0 10.1192 0.1919 10.463 0.533484C10.8068 0.875068 11 1.33836 11 1.82143V19.7115C12.0728 19.3347 13.0015 18.6366 13.6582 17.7134C14.3149 16.7902 14.6673 15.6873 14.6667 14.5569V1.82143C14.6667 1.33836 14.8598 0.875068 15.2036 0.533484C15.5475 0.1919 16.0138 0 16.5 0C16.9862 0 17.4525 0.1919 17.7964 0.533484C18.1402 0.875068 18.3333 1.33836 18.3333 1.82143V14.5569C18.3338 16.6563 17.6041 18.6915 16.2677 20.3179C14.9314 21.9442 13.0705 23.062 11 23.4819V49.1786C11 49.6616 10.8068 50.1249 10.463 50.4665C10.1192 50.8081 9.6529 51 9.16667 51C8.68044 51 8.21412 50.8081 7.8703 50.4665C7.52649 50.1249 7.33333 49.6616 7.33333 49.1786V23.4819C5.26283 23.062 3.40194 21.9442 2.06561 20.3179C0.729269 18.6915 -0.000431109 16.6563 1.91085e-07 14.5569V1.82143C1.91085e-07 1.33836 0.193155 0.875068 0.536971 0.533484C0.880788 0.1919 1.3471 0 1.83333 0C2.31956 0 2.78588 0.1919 3.1297 0.533484C3.47351 0.875068 3.66667 1.33836 3.66667 1.82143V14.5569C3.66607 15.6873 4.0184 16.7902 4.6751 17.7134C5.3318 18.6366 6.26055 19.3347 7.33333 19.7115ZM31.1667 28.9425C25.9637 27.7841 22 21.7916 22 14.5714C22 6.52071 26.9243 0 33 0C39.0757 0 44 6.52071 44 14.5714C44 21.7916 40.0363 27.7841 34.8333 28.9425V49.1786C34.8333 49.6616 34.6402 50.1249 34.2964 50.4665C33.9525 50.8081 33.4862 51 33 51C32.5138 51 32.0475 50.8081 31.7036 50.4665C31.3598 50.1249 31.1667 49.6616 31.1667 49.1786V28.9425ZM33 25.5C36.784 25.5 40.3333 20.8007 40.3333 14.5714C40.3333 8.34214 36.784 3.64286 33 3.64286C29.216 3.64286 25.6667 8.34214 25.6667 14.5714C25.6667 20.8007 29.216 25.5 33 25.5Z" fill="#606060"/>
</svg>
