<svg width="15" height="14" viewBox="0 0 15 14" fill="none" xmlns="http://www.w3.org/2000/svg">
<path d="M14.1673 6.37727L11.2438 8.92876L12.1195 12.7275C12.1659 12.926 12.1527 13.1339 12.0815 13.325C12.0104 13.5161 11.8845 13.682 11.7196 13.8019C11.5547 13.9219 11.3581 13.9906 11.1543 13.9994C10.9506 14.0082 10.7488 13.9568 10.5741 13.8515L7.26097 11.842L3.95494 13.8515C3.78028 13.9568 3.57847 14.0082 3.37474 13.9994C3.17101 13.9906 2.9744 13.9219 2.80949 13.8019C2.64458 13.682 2.51868 13.5161 2.44755 13.325C2.37641 13.1339 2.36319 12.926 2.40953 12.7275L3.28401 8.93264L0.359789 6.37727C0.205124 6.24388 0.0932849 6.06779 0.0382969 5.87109C-0.016691 5.67439 -0.0123802 5.46583 0.0506887 5.27157C0.113758 5.07731 0.232777 4.906 0.392822 4.77911C0.552867 4.65222 0.746812 4.57541 0.950337 4.55831L4.80478 4.22446L6.30935 0.635796C6.38792 0.447492 6.52045 0.286645 6.69025 0.173507C6.86005 0.0603695 7.05953 0 7.26357 0C7.4676 0 7.66708 0.0603695 7.83688 0.173507C8.00668 0.286645 8.13921 0.447492 8.21778 0.635796L9.72688 4.22446L13.58 4.55831C13.7836 4.57541 13.9775 4.65222 14.1375 4.77911C14.2976 4.906 14.4166 5.07731 14.4797 5.27157C14.5428 5.46583 14.5471 5.67439 14.4921 5.87109C14.4371 6.06779 14.3252 6.24388 14.1706 6.37727H14.1673Z" fill="#06B906"/>
</svg>
