<svg width="24" height="24" viewBox="0 0 24 24" fill="none" xmlns="http://www.w3.org/2000/svg">
<path d="M15.3748 7.125C15.3748 7.125 15.3748 4.875 17.6248 4.875C19.8748 4.875 19.8748 2.625 19.8748 2.625M9.59979 18.6L5.39979 14.4M12.7498 1.5V3.75M20.2498 11.25L21.7498 12.75M20.2498 7.875L22.4998 7.125M7.00279 10.003L13.9968 16.997M17.2968 15.806L4.50879 20.446C4.37526 20.4968 4.22989 20.5079 4.0902 20.478C3.95051 20.448 3.82245 20.3784 3.72143 20.2774C3.62041 20.1763 3.55075 20.0483 3.52083 19.9086C3.49091 19.7689 3.50201 19.6235 3.55279 19.49L8.19279 6.703C8.23591 6.58409 8.30842 6.47801 8.40355 6.39464C8.49869 6.31128 8.61336 6.25333 8.73691 6.22618C8.86045 6.19904 8.98886 6.20358 9.11018 6.23939C9.23149 6.2752 9.34178 6.34112 9.43079 6.431L17.5688 14.568C17.6587 14.657 17.7246 14.7673 17.7604 14.8886C17.7962 15.0099 17.8008 15.1383 17.7736 15.2619C17.7465 15.3854 17.6885 15.5001 17.6051 15.5952C17.5218 15.6904 17.4157 15.7629 17.2968 15.806Z" stroke="white" stroke-width="1.5" stroke-linecap="round" stroke-linejoin="round"/>
</svg>
