<svg width="1280" height="60" viewBox="0 0 1280 60" fill="none" xmlns="http://www.w3.org/2000/svg">
<path d="M18.5386 28.1217C18.2988 27.8255 18.0688 27.5524 17.8531 27.2691C17.8205 27.2258 17.8333 27.1232 17.8574 27.0582C18.1526 26.2461 18.4549 25.4355 18.7515 24.6249C19.1971 23.4054 19.6669 22.1931 20.077 20.9605C20.5312 19.5979 20.7512 18.1891 20.6546 16.7442C20.6178 16.1835 20.5255 15.6214 20.2331 15.1316C19.8698 14.5247 19.3759 14.0595 18.6905 13.8442C18.5642 13.8037 18.4279 13.7965 18.2377 13.7632C18.6379 13.2069 19.0197 12.6738 19.2 12.0163C18.7841 12.1738 18.5216 12.5394 18.1795 12.8356C17.9766 12.4657 17.8077 12.09 17.4543 11.8472C17.4401 12.4758 17.6261 13.0523 17.8687 13.6289C17.6573 13.6433 17.4515 13.6592 17.2471 13.6693C16.1557 13.7242 15.3652 14.2733 14.8061 15.2067C14.3562 15.9581 14.193 16.7933 14.0667 17.6487C13.8538 19.0908 14.0227 20.5111 14.2469 21.9315C14.4555 23.2508 14.6741 24.57 14.887 25.8892C14.9111 26.0381 14.9764 26.2201 14.9182 26.327C14.8728 26.4094 14.6627 26.4022 14.5251 26.4253C13.8197 26.5467 13.1555 26.7836 12.541 27.155C12.4232 27.2258 12.3409 27.1955 12.2458 27.1261C11.532 26.6103 10.872 26.0279 10.3072 25.3488C9.63447 24.5396 8.99724 23.6987 8.3444 22.8722C7.91012 22.3231 7.45172 21.7914 6.82584 21.4735C6.08218 21.0963 5.29309 20.9634 4.54943 21.4576C3.84266 21.9272 3.63545 22.6468 3.75041 23.4762C3.81569 23.9516 4.00587 24.3793 4.24997 24.7838C4.80488 25.7057 5.52585 26.473 6.36744 27.1261C7.10543 27.6983 7.88316 28.2055 8.72049 28.6129C8.74888 28.6274 8.77442 28.6462 8.7872 28.7054C8.51755 28.626 8.24364 28.5609 7.97966 28.4641C6.36176 27.8731 4.96951 26.9469 3.92355 25.5381C3.39561 24.8272 3.05216 24.0252 3.06067 23.1207C3.06351 22.7855 3.18131 22.4445 3.28207 22.1179C3.35729 21.8766 3.36722 21.8651 3.13021 21.8304C2.77399 21.7769 2.41777 21.7191 2.0658 21.6425C1.88273 21.6021 1.70816 21.5183 1.53076 21.4532C1.53076 21.4316 1.53076 21.4084 1.53218 21.3868C1.90827 21.3608 2.28436 21.3348 2.68742 21.3073C2.59659 20.9027 2.51002 20.5198 2.42345 20.1355C2.44048 20.1282 2.45893 20.1224 2.47596 20.1152C2.88469 20.5747 3.15008 21.1281 3.43535 21.7408C3.67945 21.3622 4.02574 21.1773 4.0967 20.7019C4.27126 19.5199 4.67148 18.3943 5.1455 17.3019C5.51733 16.4451 5.9658 15.6301 6.50368 14.8672C7.51416 13.4323 8.7872 12.2966 10.3185 11.4831C11.8896 10.6465 13.5714 10.1783 15.3511 10.0555C16.5304 9.97315 17.7055 9.9717 18.8778 10.1249C20.2019 10.2983 21.4693 10.6826 22.6813 11.2519C24.3503 12.0351 25.7837 13.1448 27.007 14.5348C28.4092 16.1257 29.3417 17.9724 29.7703 20.0646C30.0243 21.3044 30.1251 22.5644 30.0058 23.8302C29.8753 25.2303 29.5432 26.5799 29.0053 27.8833C28.2219 29.7819 27.0879 31.4552 25.8688 33.0735C25.0443 34.1673 24.1672 35.2207 23.3228 36.3001C22.3464 37.5471 21.3813 38.8027 20.412 40.0555C20.2913 40.2101 20.1764 40.369 20.0756 40.5063C19.7861 40.304 19.5235 40.1321 19.2766 39.9399C19.2085 39.8864 19.1432 39.7737 19.146 39.6899C19.1971 38.0542 19.2581 36.4171 19.3192 34.7814C19.3192 34.7626 19.3291 34.7439 19.3334 34.7251C19.7719 35.0892 20.2076 35.4519 20.6419 35.8146C20.6674 35.7914 20.693 35.7698 20.7185 35.7466C20.5837 35.3377 20.2757 35.0213 20.077 34.6283C20.446 34.4592 20.8164 34.2901 21.1854 34.1196C21.1769 34.0893 21.1684 34.059 21.1613 34.0272C20.5581 33.9 19.9706 34.072 19.3632 34.1789C19.3632 33.9173 19.349 33.6688 19.366 33.4232C19.4256 32.5288 19.4355 31.6358 19.3163 30.7457C19.2979 30.6099 19.3334 30.5578 19.4824 30.5376C21.1457 30.3108 22.7494 29.8816 24.2509 29.097C25.4729 28.4583 26.4209 27.5307 27.0695 26.2953C27.3434 25.7736 27.5506 25.226 27.4456 24.6235C27.3917 24.3186 27.2639 24.0267 27.1674 23.7233C27.6727 23.4935 28.2276 23.2406 28.7825 22.9878C28.774 22.9531 28.7654 22.917 28.7569 22.8823C28.3454 22.7783 27.938 22.9415 27.5307 22.9632C27.5307 22.6497 27.535 22.3477 27.5279 22.0471C27.5251 21.9517 27.4882 21.8578 27.4683 21.7625C27.4044 21.8347 27.3122 21.8954 27.2795 21.9792C27.1348 22.352 27.007 22.732 26.8736 23.1092C26.8424 23.1987 26.8112 23.2869 26.7715 23.3996C26.6451 23.3114 26.5401 23.2392 26.4365 23.1669C25.9256 22.8043 25.3707 22.7653 24.7775 22.8967C24.153 23.0355 23.6492 23.3967 23.2064 23.8244C22.3421 24.6581 21.5147 25.5309 20.6759 26.3906C20.0302 27.0524 19.3149 27.6246 18.5386 28.1231V28.1217Z" fill="#06B906"/>
<path d="M10.7061 41.018C10.8197 41.083 10.9261 41.1769 11.0496 41.2101C11.4966 41.3301 11.948 41.4298 12.3979 41.5352C12.4631 41.5511 12.5298 41.5641 12.5951 41.5786C12.4532 41.9442 12.2701 42.2895 12.185 42.6594C12.0473 43.2634 11.9224 43.8804 11.8813 44.4974C11.7862 45.9264 11.9834 47.3324 12.3283 48.7195C12.3482 48.799 12.3638 48.8785 12.3893 48.9998C12.2261 48.9998 12.087 48.9998 11.948 48.9998C8.33181 48.9969 4.71565 48.9955 1.0995 48.9926C0.902229 48.9926 0.704958 48.9926 0.507688 48.9984C0.296225 49.0027 0.137273 48.9117 0.040767 48.7239C-0.0585779 48.5302 0.040767 48.3742 0.155723 48.2311C0.829849 47.3959 1.50681 46.5622 2.18236 45.7285C3.80878 43.7243 5.43519 41.7202 7.06161 39.7161C8.31903 38.1671 9.57787 36.6167 10.8353 35.0677C10.9999 34.8639 11.1702 34.6645 11.3192 34.4507C11.3632 34.3871 11.3732 34.2715 11.3505 34.192C11.0524 33.1213 10.7757 32.0506 10.9573 30.9207C11.0056 30.6201 11.0524 30.3196 11.1078 30.0205C11.1262 29.9222 11.1688 29.8269 11.2185 29.7344C10.9857 31.0652 11.2313 32.3309 11.7422 33.5447C12.0033 34.1675 12.3439 34.7541 12.6576 35.3538C13.15 36.2944 13.6482 37.2336 14.1463 38.1714C14.2797 38.4214 14.4273 38.6627 14.5593 38.9127C14.6232 39.034 14.7027 39.0384 14.8133 39.0008C15.7415 38.6887 16.6626 38.7263 17.568 39.0861C17.8164 39.1858 18.0463 39.336 18.2776 39.482C16.1346 39.1496 14.2357 39.534 12.781 41.3835C12.4986 40.7102 12.1977 40.1048 11.7308 39.5268C11.6584 40.0325 11.8273 40.4356 11.9366 40.8778C11.5293 40.8966 11.1277 40.9154 10.726 40.9341C10.7189 40.9616 10.7104 40.9891 10.7033 41.018H10.7061Z" fill="#06B906"/>
<path d="M29.7263 38.4244C29.9052 38.4244 30.0116 38.4244 30.1195 38.4244C30.5821 38.4258 31.0462 38.4201 31.5089 38.4331C31.8594 38.4432 31.9772 38.5602 31.9815 38.9128C31.9914 39.6338 31.9886 40.3548 31.99 41.0773C31.9943 43.4225 31.9985 45.7662 31.9999 48.1113C31.9999 48.2847 31.9971 48.4595 31.973 48.63C31.946 48.8294 31.8183 48.9508 31.621 48.9783C31.5004 48.9942 31.3769 48.9956 31.2534 48.9956C28.0872 48.9971 24.9195 48.9985 21.7532 49C21.5843 49 21.4154 49 21.2153 49C21.2622 48.7847 21.3076 48.6127 21.336 48.4393C21.6425 46.6187 21.7958 44.7952 21.397 42.9659C21.3814 42.8922 21.3757 42.8084 21.3388 42.7462C21.2366 42.5757 21.292 42.4934 21.4594 42.4197C22.6516 41.8966 23.8437 41.3706 25.0316 40.8375C26.0591 40.3765 27.0852 39.9084 27.9977 39.2307C28.6435 38.7509 29.1885 38.1831 29.4638 37.3855C29.8555 36.2526 29.4936 35.1473 28.679 34.38C28.3228 34.0448 27.924 33.7919 27.4428 33.6893C27.3875 33.6777 27.335 33.6503 27.2569 33.6214C27.9892 33.4624 28.8266 33.854 29.6639 34.734C30.0258 34.2398 30.3877 33.7457 30.7496 33.2529C30.7808 33.2688 30.8106 33.2847 30.8419 33.3006C30.7141 33.6749 30.5864 34.0505 30.4544 34.4363C30.8348 34.5071 31.1981 34.5765 31.6125 34.6545C31.0278 34.9305 30.436 34.8828 29.8285 34.9695C30.4899 36.1284 30.4118 37.2699 29.7235 38.4258L29.7263 38.4244Z" fill="#06B906"/>
<path d="M15.7087 44.3254C16.0976 44.3629 16.4865 44.402 16.8895 44.441C16.8611 44.0479 16.8342 43.6679 16.8072 43.2879C16.8271 43.2836 16.847 43.2792 16.8668 43.2749C17.2514 43.8168 17.4004 44.454 17.5793 45.1302C16.8782 45.0059 16.2708 44.7357 15.686 44.4063C15.6931 44.3788 15.7016 44.3528 15.7087 44.3254Z" fill="#06B906"/>
<path d="M18.6365 19.2571C18.3882 18.6127 18.2633 17.9769 18.2505 17.318C18.2689 17.3093 18.2874 17.2992 18.3058 17.2905C18.4818 17.6214 18.6592 17.9523 18.8466 18.3034C19.1673 18.0607 19.4824 17.8223 19.7988 17.5839C19.5775 18.2558 19.1049 18.7282 18.6379 19.2571H18.6365Z" fill="#06B906"/>
<path d="M25.3 39.0871C24.6599 38.7967 24.0908 38.4947 23.5742 38.0106C24.0057 38.0019 24.3491 38.1927 24.7493 38.2866C24.8004 37.9037 24.8515 37.5265 24.9012 37.1494C25.2191 37.7491 25.2617 38.3964 25.3 39.0871Z" fill="#06B906"/>
<path d="M22.3863 28.0317C22.2558 27.3497 22.2728 26.7024 22.4275 26.0579C22.4459 26.0536 22.4658 26.0493 22.4843 26.0449C22.5822 26.409 22.6787 26.7746 22.7837 27.1633C23.1513 27.0029 23.5061 26.8483 23.8623 26.6937C23.8723 26.7125 23.8822 26.7313 23.8921 26.7515C23.4621 27.2529 22.9498 27.6517 22.3863 28.0317Z" fill="#06B906"/>
<path d="M15.4519 16.3305C15.7301 16.462 16.0111 16.5877 16.2864 16.725C16.505 16.8348 16.5192 16.8334 16.5745 16.5834C16.627 16.3479 16.6767 16.1123 16.7321 15.8768C16.7505 15.8002 16.7817 15.7251 16.8286 15.6543C17.0031 16.3161 17.0102 16.9793 16.9464 17.696C16.373 17.2885 15.8294 16.9172 15.415 16.3927C15.4264 16.371 15.4392 16.3508 15.4505 16.3291L15.4519 16.3305Z" fill="#06B906"/>
<path d="M20.2946 45.8455C19.7297 45.4669 19.216 45.0551 18.7803 44.5522C18.7902 44.532 18.7987 44.5118 18.8087 44.4916C19.0286 44.5826 19.2486 44.6736 19.4672 44.7661C19.602 44.8239 19.7368 44.8831 19.8716 44.9424C19.9142 44.808 19.9568 44.6736 19.998 44.5392C20.0647 44.3239 20.1299 44.1087 20.1995 43.8789C20.3797 44.178 20.4081 44.8239 20.2946 45.8455Z" fill="#06B906"/>
<path d="M15.7373 19.5589C15.9615 19.7786 16.1844 19.9968 16.4086 20.2164C16.569 20.3724 16.5903 20.3623 16.7024 20.173C16.8684 19.8927 17.0487 19.6225 17.253 19.3003C17.2743 19.7699 17.0657 20.4736 16.6981 21.2452C16.4029 21.0689 15.8111 20.0849 15.7387 19.5589H15.7373Z" fill="#06B906"/>
<path d="M6.7707 23.6341C6.16895 23.9072 5.59701 24.2034 4.90869 24.2309C5.06197 24.1124 5.21382 23.9925 5.36852 23.8769C5.52321 23.7613 5.68074 23.65 5.83402 23.5402C5.5374 23.2339 5.26775 22.955 4.99952 22.6776L5.03642 22.6313C5.67081 22.8409 6.21579 23.2151 6.77212 23.6327L6.7707 23.6341Z" fill="#06B906"/>
<path d="M14.2457 29.8135C13.8952 29.2428 13.6922 28.6244 13.5659 27.977C13.5858 27.964 13.6071 27.951 13.6269 27.9395C13.8483 28.2501 14.0697 28.5593 14.284 28.8613C14.5594 28.5825 14.8361 28.3021 15.1256 28.0074C15.1625 28.3296 14.7098 29.2413 14.2443 29.8135H14.2457Z" fill="#06B906"/>
<path d="M18.8382 40.9829C18.7516 41.6548 18.4791 42.2588 18.1981 42.8816C17.788 42.321 17.4204 41.7704 17.2686 41.0855C17.497 41.3182 17.7298 41.545 17.9512 41.7849C18.0945 41.9395 18.1272 41.9424 18.2464 41.7618C18.4252 41.4887 18.6097 41.2199 18.7914 40.9497L18.8396 40.9829H18.8382Z" fill="#06B906"/>
<path d="M25.8348 25.668C25.138 25.5466 24.559 25.1955 23.9785 24.801C24.5874 24.4658 25.1863 24.1898 25.8632 24.1074C25.5524 24.3444 25.2416 24.5828 24.9124 24.8342C25.2175 25.1102 25.5255 25.3891 25.8334 25.668H25.8348Z" fill="#06B906"/>
<path d="M6.94852 25.1878C7.29055 25.3338 7.63116 25.4797 7.99306 25.6343C8.09099 25.2586 8.18465 24.8989 8.27832 24.5391C8.30103 24.542 8.32516 24.5448 8.34786 24.5477C8.50256 25.1719 8.48979 25.8048 8.42024 26.4753C7.8185 26.1458 7.33738 25.721 6.91162 25.2283C6.92439 25.2139 6.93575 25.1994 6.94852 25.1864V25.1878Z" fill="#06B906"/>
<path d="M26.3941 36.0268C26.668 35.7537 26.9362 35.4879 27.203 35.222C27.2172 35.2335 27.2328 35.2451 27.247 35.2567C27.0569 35.8867 26.7162 36.4328 26.3004 36.9949C26.0293 36.3635 25.7469 35.7884 25.6816 35.1382L25.7398 35.1021C25.9499 35.3983 26.1585 35.6945 26.3941 36.0283V36.0268Z" fill="#06B906"/>
<path d="M13.4722 31.7502C12.9101 31.4554 12.3481 31.1621 11.7861 30.8673C11.7961 30.8384 11.8074 30.8081 11.8174 30.7792C12.192 30.8471 12.5667 30.915 12.9584 30.9858C13.018 30.5827 12.9073 30.1839 13.0762 29.7793C13.3615 30.418 13.4665 31.0566 13.5289 31.7025C13.5091 31.7184 13.4892 31.7343 13.4707 31.7502H13.4722Z" fill="#06B906"/>
<path d="M14.2458 33.3279C14.4175 33.9536 14.5452 34.5836 14.5169 35.3162C13.9463 34.9564 13.4156 34.6226 12.8848 34.2888C12.8975 34.257 12.9089 34.2252 12.9217 34.1934C13.275 34.2816 13.6299 34.3683 13.9974 34.4593C14.0556 34.0865 14.1181 33.7007 14.1791 33.3135C14.2018 33.3178 14.2245 33.3221 14.2472 33.3265L14.2458 33.3279Z" fill="#06B906"/>
<path d="M16.498 31.7495C16.0496 32.2972 15.5188 32.6729 14.944 33.0442C14.8617 32.368 14.873 31.7192 15.0845 31.0776C15.1512 31.3897 15.2307 31.699 15.2804 32.014C15.3073 32.1874 15.3669 32.2047 15.5074 32.1411C15.7671 32.0241 16.0311 31.9172 16.2951 31.8073C16.349 31.7857 16.4072 31.7755 16.498 31.7495Z" fill="#06B906"/>
</svg>
