<svg width="24" height="24" viewBox="0 0 24 24" fill="none" xmlns="http://www.w3.org/2000/svg">
<path d="M20.25 6.75H3.75C3.55109 6.75 3.36032 6.82902 3.21967 6.96967C3.07902 7.11032 3 7.30109 3 7.5V19.5C3 19.914 3.336 20.25 3.75 20.25H20.25C20.4489 20.25 20.6397 20.171 20.7803 20.0303C20.921 19.8897 21 19.6989 21 19.5V7.5C21 7.30109 20.921 7.11032 20.7803 6.96967C20.6397 6.82902 20.4489 6.75 20.25 6.75Z" stroke="white" stroke-width="1.5" stroke-linecap="round" stroke-linejoin="round"/>
<path d="M8.25 9.75V6.75C8.25 5.75544 8.64509 4.80161 9.34835 4.09835C10.0516 3.39509 11.0054 3 12 3C12.9946 3 13.9484 3.39509 14.6517 4.09835C15.3549 4.80161 15.75 5.75544 15.75 6.75V9.75" stroke="white" stroke-width="1.5" stroke-linecap="round" stroke-linejoin="round"/>
</svg>
