<svg width="1280" height="24" viewBox="0 0 1280 24" fill="none" xmlns="http://www.w3.org/2000/svg">
<g opacity="0.8" clip-path="url(#clip0_87_5338)">
<path d="M6 18C9.31371 18 12 15.3137 12 12C12 8.68629 9.31371 6 6 6C2.68629 6 0 8.68629 0 12C0 15.3137 2.68629 18 6 18Z" fill="white"/>
</g>
<g opacity="0.24" clip-path="url(#clip1_87_5338)">
<path d="M34 18C37.3137 18 40 15.3137 40 12C40 8.68629 37.3137 6 34 6C30.6863 6 28 8.68629 28 12C28 15.3137 30.6863 18 34 18Z" fill="white"/>
</g>
<g opacity="0.8">
<path d="M1231.8 18.7041C1232.01 18.9154 1232.13 19.2021 1232.13 19.501C1232.13 19.7999 1232.01 20.0865 1231.8 20.2978C1231.58 20.5092 1231.3 20.6279 1231 20.6279C1230.7 20.6279 1230.41 20.5092 1230.2 20.2978L1222.7 12.7978C1222.6 12.6933 1222.51 12.5691 1222.46 12.4324C1222.4 12.2956 1222.37 12.149 1222.37 12.001C1222.37 11.8529 1222.4 11.7063 1222.46 11.5696C1222.51 11.4328 1222.6 11.3086 1222.7 11.2041L1230.2 3.7041C1230.41 3.49276 1230.7 3.37402 1231 3.37402C1231.3 3.37402 1231.58 3.49276 1231.8 3.7041C1232.01 3.91544 1232.13 4.20209 1232.13 4.50097C1232.13 4.79986 1232.01 5.08651 1231.8 5.29785L1225.09 12L1231.8 18.7041Z" fill="white"/>
</g>
<g opacity="0.8">
<path d="M1273.3 12.7959L1265.8 20.2959C1265.58 20.5072 1265.3 20.626 1265 20.626C1264.7 20.626 1264.41 20.5072 1264.2 20.2959C1263.99 20.0846 1263.87 19.7979 1263.87 19.499C1263.87 19.2001 1263.99 18.9135 1264.2 18.7021L1270.91 12L1264.2 5.2959C1264.1 5.19125 1264.02 5.06702 1263.96 4.93029C1263.9 4.79356 1263.87 4.64702 1263.87 4.49902C1263.87 4.35103 1263.9 4.20448 1263.96 4.06776C1264.02 3.93103 1264.1 3.80679 1264.2 3.70215C1264.31 3.5975 1264.43 3.51449 1264.57 3.45785C1264.71 3.40122 1264.85 3.37207 1265 3.37207C1265.15 3.37207 1265.3 3.40122 1265.43 3.45785C1265.57 3.51449 1265.69 3.5975 1265.8 3.70215L1273.3 11.2021C1273.4 11.3068 1273.49 11.4311 1273.54 11.5679C1273.6 11.7047 1273.63 11.8513 1273.63 11.9994C1273.63 12.1475 1273.6 12.2941 1273.54 12.4307C1273.48 12.5674 1273.4 12.6915 1273.3 12.7959Z" fill="white"/>
</g>
<defs>
<clipPath id="clip0_87_5338">
<rect width="12" height="12" fill="white" transform="translate(0 6)"/>
</clipPath>
<clipPath id="clip1_87_5338">
<rect width="12" height="12" fill="white" transform="translate(28 6)"/>
</clipPath>
</defs>
</svg>
