<svg width="53" height="63" viewBox="0 0 53 63" fill="none" xmlns="http://www.w3.org/2000/svg">
<path d="M30.4902 29.2735C30.0957 28.795 29.7176 28.3538 29.3628 27.8963C29.3091 27.8263 29.3301 27.6606 29.3698 27.5555C29.8553 26.2437 30.3525 24.9343 30.8403 23.6248C31.5732 21.6548 32.3458 19.6965 33.0204 17.7054C33.7673 15.5043 34.1291 13.2286 33.9704 10.8944C33.9097 9.98877 33.758 9.08079 33.2771 8.28951C32.6796 7.30917 31.8673 6.55758 30.7399 6.20979C30.5322 6.14443 30.3081 6.13276 29.9953 6.07908C30.6536 5.18043 31.2815 4.31913 31.5779 3.2571C30.894 3.51152 30.4622 4.10206 29.8996 4.58056C29.5659 3.98302 29.2881 3.37614 28.7069 2.984C28.6836 3.99936 28.9893 4.93068 29.3885 5.862C29.0407 5.88535 28.7022 5.91102 28.3661 5.92736C26.5711 6.01606 25.271 6.90303 24.3514 8.41089C23.6115 9.62464 23.343 10.9738 23.1353 12.3556C22.7852 14.6851 23.0629 16.9795 23.4317 19.274C23.7748 21.4051 24.1343 23.5361 24.4844 25.6672C24.5241 25.9076 24.6315 26.2017 24.5358 26.3745C24.4611 26.5075 24.1156 26.4958 23.8892 26.5332C22.7292 26.7292 21.6368 27.112 20.6261 27.7119C20.4324 27.8263 20.297 27.7773 20.1406 27.6652C18.9665 26.8319 17.8811 25.8913 16.9521 24.7942C15.8458 23.4871 14.7977 22.1286 13.724 20.7935C13.0098 19.9065 12.2558 19.0476 11.2265 18.5341C10.0034 17.9249 8.70562 17.7101 7.48253 18.5084C6.32012 19.267 5.97934 20.4294 6.1684 21.7692C6.27577 22.5371 6.58855 23.228 6.99002 23.8816C7.90267 25.3708 9.08842 26.6102 10.4726 27.6652C11.6863 28.5896 12.9654 29.4088 14.3426 30.0671C14.3893 30.0904 14.4313 30.1208 14.4523 30.2165C14.0088 30.0881 13.5583 29.983 13.1242 29.8267C10.4632 28.872 8.17343 27.3758 6.45317 25.1C5.58487 23.9516 5.02 22.6562 5.03401 21.195C5.03868 20.6535 5.23241 20.1026 5.39814 19.5751C5.52185 19.1853 5.53818 19.1666 5.14838 19.1106C4.56251 19.0242 3.97664 18.9309 3.39777 18.8072C3.09667 18.7418 2.80957 18.6064 2.5178 18.5014C2.5178 18.4664 2.5178 18.429 2.52014 18.394C3.13868 18.352 3.75723 18.31 4.42013 18.2656C4.27074 17.6121 4.12836 16.9935 3.98598 16.3727C4.01399 16.361 4.04433 16.3516 4.07234 16.34C4.74458 17.0822 5.18106 17.9762 5.65022 18.9659C6.0517 18.3543 6.62123 18.0556 6.73793 17.2876C7.02503 15.3783 7.68326 13.56 8.46287 11.7954C9.07441 10.4112 9.812 9.09479 10.6966 7.86236C12.3586 5.54456 14.4523 3.70992 16.9708 2.3958C19.5547 1.04433 22.3207 0.288069 25.2477 0.0896668C27.1874 -0.0433794 29.12 -0.0457135 31.048 0.201706C33.2258 0.481803 35.3102 1.10269 37.3035 2.02234C40.0485 3.28744 42.406 5.08006 44.418 7.32551C46.7241 9.8954 48.2577 12.8784 48.9626 16.2583C49.3804 18.261 49.5461 20.2963 49.3501 22.3411C49.1353 24.6028 48.5891 26.7829 47.7045 28.8883C46.416 31.9554 44.5511 34.6583 42.546 37.2726C41.1899 39.0395 39.7474 40.7411 38.3586 42.4847C36.7527 44.4991 35.1655 46.5274 33.5713 48.5512C33.3728 48.8009 33.1838 49.0577 33.0181 49.2794C32.5419 48.9526 32.1101 48.6749 31.7039 48.3644C31.5919 48.2781 31.4845 48.096 31.4892 47.9606C31.5732 45.3184 31.6736 42.6738 31.774 40.0315C31.774 40.0012 31.7903 39.9708 31.7973 39.9405C32.5185 40.5287 33.2351 41.1146 33.9494 41.7004C33.9914 41.6631 34.0334 41.6281 34.0754 41.5907C33.8537 40.9302 33.3472 40.419 33.0204 39.7841C33.6273 39.511 34.2365 39.2379 34.8434 38.9625C34.8294 38.9135 34.8153 38.8645 34.8037 38.8131C33.8117 38.6077 32.8453 38.8855 31.8463 39.0582C31.8463 38.6357 31.823 38.2342 31.851 37.8374C31.949 36.3926 31.9654 34.9501 31.7693 33.5123C31.7389 33.2929 31.7973 33.2088 32.0424 33.1761C34.778 32.8097 37.4156 32.1165 39.8851 30.849C41.8948 29.8173 43.454 28.3188 44.5207 26.3231C44.9712 25.4805 45.312 24.5958 45.1393 23.6225C45.0506 23.13 44.8405 22.6585 44.6818 22.1683C45.5127 21.7972 46.4254 21.3887 47.338 20.9802C47.324 20.9242 47.31 20.8659 47.296 20.8099C46.6191 20.6418 45.9492 20.9056 45.2793 20.9406C45.2793 20.4341 45.2863 19.9462 45.2746 19.4607C45.27 19.3067 45.2093 19.1549 45.1766 19.0009C45.0716 19.1176 44.9199 19.2156 44.8662 19.351C44.6281 19.9532 44.418 20.5671 44.1986 21.1763C44.1473 21.321 44.0959 21.4634 44.0305 21.6455C43.8228 21.5031 43.6501 21.3864 43.4797 21.2697C42.6394 20.6838 41.7267 20.6208 40.7511 20.8332C39.724 21.0573 38.8954 21.6408 38.1672 22.3317C36.7457 23.6785 35.3849 25.0883 34.0054 26.4772C32.9434 27.5462 31.767 28.4705 30.4902 29.2758V29.2735Z" fill="#06B906"/>
<path d="M17.6081 50.1062C17.7949 50.2112 17.9699 50.3629 18.173 50.4166C18.9083 50.6103 19.6505 50.7714 20.3904 50.9418C20.4978 50.9675 20.6075 50.9885 20.7149 51.0118C20.4815 51.6024 20.1804 52.1602 20.0403 52.7578C19.8139 53.7334 19.6085 54.7301 19.5408 55.7268C19.3844 58.0353 19.7089 60.3064 20.2761 62.5471C20.3087 62.6755 20.3344 62.8039 20.3764 63C20.108 63 19.8793 63 19.6505 63C13.7031 62.9953 7.75572 62.993 1.80832 62.9883C1.48387 62.9883 1.15943 62.9883 0.834982 62.9976C0.487194 63.0046 0.22577 62.8576 0.0670485 62.5542C-0.0963416 62.2414 0.0670485 61.9893 0.256114 61.7582C1.36483 60.4091 2.47822 59.0623 3.58927 57.7155C6.2642 54.478 8.93913 51.2406 11.6141 48.0031C13.6821 45.5009 15.7525 42.9964 17.8205 40.4942C18.0913 40.165 18.3714 39.8429 18.6165 39.4975C18.6888 39.3948 18.7052 39.2081 18.6678 39.0797C18.1777 37.3501 17.7225 35.6205 18.0213 33.7952C18.1006 33.3097 18.1777 32.8242 18.2687 32.341C18.299 32.1823 18.3691 32.0282 18.4508 31.8788C18.068 34.0286 18.4718 36.0733 19.3121 38.034C19.7415 39.04 20.3017 39.9877 20.8176 40.9563C21.6275 42.4759 22.4468 43.993 23.2661 45.5079C23.4855 45.9117 23.7283 46.3015 23.9453 46.7053C24.0504 46.9014 24.1811 46.9084 24.3631 46.8477C25.8897 46.3435 27.4045 46.4042 28.8937 46.9854C29.3022 47.1465 29.6803 47.3892 30.0608 47.625C26.5362 47.0881 23.4132 47.709 21.0207 50.6967C20.5562 49.609 20.0613 48.631 19.2934 47.6973C19.1743 48.5143 19.4521 49.1655 19.6318 49.8798C18.9619 49.9101 18.3014 49.9404 17.6408 49.9708C17.6291 50.0151 17.6151 50.0595 17.6035 50.1062H17.6081Z" fill="#06B906"/>
<path d="M48.8904 45.9162C49.1845 45.9162 49.3596 45.9162 49.537 45.9162C50.2979 45.9185 51.0612 45.9092 51.8221 45.9302C52.3986 45.9465 52.5924 46.1356 52.5994 46.7051C52.6157 47.8698 52.611 49.0346 52.6134 50.2017C52.6204 53.99 52.6274 57.776 52.6297 61.5643C52.6297 61.8444 52.625 62.1268 52.5854 62.4022C52.541 62.7243 52.3309 62.9204 52.0065 62.9648C51.8081 62.9904 51.605 62.9928 51.402 62.9928C46.1945 62.9951 40.9847 62.9974 35.7772 62.9998C35.4994 62.9998 35.2217 62.9998 34.8926 62.9998C34.9696 62.652 35.0443 62.3742 35.091 62.0941C35.5951 59.1531 35.8472 56.2074 35.1913 53.2524C35.1656 53.1333 35.1563 52.998 35.0956 52.8976C34.9276 52.6222 35.0186 52.4891 35.294 52.3701C37.2547 51.5251 39.2154 50.6755 41.1691 49.8142C42.859 49.0696 44.5466 48.3133 46.0474 47.2186C47.1095 46.4437 48.0058 45.5264 48.4586 44.2379C49.1028 42.408 48.5076 40.6223 47.1678 39.3829C46.5819 38.8414 45.926 38.4329 45.1348 38.2672C45.0437 38.2485 44.9574 38.2042 44.829 38.1575C46.0334 37.9007 47.4106 38.5333 48.7877 39.9548C49.3829 39.1565 49.9781 38.3582 50.5733 37.5623C50.6247 37.5879 50.6737 37.6136 50.725 37.6393C50.515 38.2438 50.3049 38.8507 50.0878 39.4739C50.7134 39.5883 51.3109 39.7003 51.9925 39.8264C51.0308 40.2722 50.0575 40.1952 49.0585 40.3352C50.1462 42.2072 50.0178 44.0512 48.8857 45.9185L48.8904 45.9162Z" fill="#06B906"/>
<path d="M25.836 55.4485C26.4755 55.5091 27.1151 55.5722 27.778 55.6352C27.7313 55.0003 27.687 54.3864 27.6426 53.7725C27.6753 53.7655 27.708 53.7585 27.7406 53.7515C28.3732 54.6268 28.6183 55.6562 28.9124 56.7486C27.7593 56.5478 26.7603 56.1114 25.7986 55.5792C25.8103 55.5348 25.8243 55.4928 25.836 55.4485Z" fill="#06B906"/>
<path d="M30.6513 14.9537C30.2428 13.9126 30.0374 12.8856 30.0164 11.8212C30.0467 11.8072 30.0771 11.7909 30.1074 11.7769C30.3968 12.3114 30.6886 12.8459 30.9967 13.4131C31.5242 13.021 32.0424 12.6359 32.5629 12.2507C32.1988 13.3361 31.4215 14.0994 30.6536 14.9537H30.6513Z" fill="#06B906"/>
<path d="M41.6102 46.987C40.5575 46.5178 39.6215 46.03 38.7719 45.248C39.4815 45.234 40.0464 45.5421 40.7046 45.6939C40.7886 45.0753 40.8726 44.4661 40.9543 43.8569C41.4772 44.8256 41.5472 45.8713 41.6102 46.987Z" fill="#06B906"/>
<path d="M36.8182 29.1286C36.6035 28.0268 36.6315 26.9811 36.8859 25.9401C36.9162 25.9331 36.9489 25.9261 36.9793 25.9191C37.1403 26.5073 37.299 27.0979 37.4718 27.7257C38.0763 27.4666 38.6598 27.2169 39.2457 26.9671C39.262 26.9975 39.2784 27.0278 39.2947 27.0605C38.5875 27.8705 37.7448 28.5147 36.8182 29.1286Z" fill="#06B906"/>
<path d="M25.4135 10.2265C25.871 10.4389 26.3332 10.642 26.786 10.8637C27.1455 11.0411 27.1688 11.0388 27.2598 10.635C27.3462 10.2545 27.4279 9.87407 27.5189 9.4936C27.5493 9.36989 27.6006 9.24852 27.6776 9.13415C27.9647 10.2032 27.9764 11.2746 27.8714 12.4323C26.9284 11.7741 26.0344 11.1742 25.3528 10.3269C25.3715 10.2919 25.3925 10.2592 25.4112 10.2242L25.4135 10.2265Z" fill="#06B906"/>
<path d="M33.3775 57.9043C32.4485 57.2927 31.6035 56.6275 30.887 55.8152C30.9033 55.7825 30.9173 55.7498 30.9336 55.7172C31.2954 55.8642 31.6572 56.0113 32.0167 56.1606C32.2384 56.254 32.4602 56.3497 32.6819 56.4454C32.7519 56.2283 32.822 56.0113 32.8897 55.7942C32.9994 55.4464 33.1067 55.0986 33.2211 54.7275C33.5175 55.2106 33.5642 56.254 33.3775 57.9043Z" fill="#06B906"/>
<path d="M25.8826 15.4409C26.2514 15.7957 26.6179 16.1482 26.9867 16.503C27.2504 16.7551 27.2854 16.7387 27.4698 16.433C27.7429 15.9801 28.0394 15.5437 28.3755 15.0231C28.4105 15.7817 28.0674 16.9185 27.4628 18.1649C26.9773 17.8801 26.004 16.2906 25.8849 15.4409H25.8826Z" fill="#06B906"/>
<path d="M11.1356 22.0236C10.1459 22.4648 9.20524 22.9433 8.07318 22.9876C8.32527 22.7962 8.57502 22.6025 8.82944 22.4157C9.08386 22.229 9.34295 22.0493 9.59504 21.8719C9.1072 21.377 8.66372 20.9266 8.22256 20.4784L8.28325 20.4037C9.32661 20.7422 10.2229 21.3467 11.1379 22.0213L11.1356 22.0236Z" fill="#06B906"/>
<path d="M23.4294 32.0071C22.8529 31.0851 22.5191 30.0861 22.3114 29.0404C22.344 29.0194 22.379 28.9984 22.4117 28.9797C22.7758 29.4815 23.14 29.981 23.4924 30.4689C23.9453 30.0184 24.4004 29.5656 24.8766 29.0894C24.9373 29.6099 24.1927 31.0828 23.4271 32.0071H23.4294Z" fill="#06B906"/>
<path d="M30.9827 50.0494C30.8403 51.1348 30.3922 52.1104 29.93 53.1165C29.2554 52.2108 28.6509 51.3215 28.4011 50.2151C28.7769 50.5909 29.1597 50.9574 29.5239 51.3448C29.7596 51.5946 29.8133 51.5993 30.0094 51.3075C30.3035 50.8663 30.6069 50.4322 30.9057 49.9957L30.985 50.0494H30.9827Z" fill="#06B906"/>
<path d="M42.49 25.3098C41.3439 25.1138 40.3916 24.5466 39.437 23.9093C40.4383 23.3678 41.4233 22.922 42.5367 22.7889C42.0255 23.1717 41.5143 23.5569 40.9728 23.963C41.4747 24.4088 41.9812 24.8593 42.4877 25.3098H42.49Z" fill="#06B906"/>
<path d="M11.4273 24.5344C11.9898 24.7702 12.55 25.0059 13.1452 25.2557C13.3063 24.6488 13.4603 24.0676 13.6144 23.4864C13.6517 23.4911 13.6914 23.4957 13.7288 23.5004C13.9832 24.5087 13.9622 25.5311 13.8478 26.6141C12.8581 26.082 12.0669 25.3957 11.3666 24.5998C11.3876 24.5764 11.4063 24.5531 11.4273 24.5321V24.5344Z" fill="#06B906"/>
<path d="M43.4097 42.0438C43.8602 41.6026 44.3013 41.1731 44.7402 40.7437C44.7635 40.7623 44.7892 40.781 44.8125 40.7997C44.4997 41.8174 43.9395 42.6997 43.2556 43.6076C42.8098 42.5876 42.3453 41.6586 42.238 40.6083L42.3337 40.5499C42.6791 41.0284 43.0222 41.5069 43.4097 42.0461V42.0438Z" fill="#06B906"/>
<path d="M22.1573 35.1345C21.233 34.6583 20.3087 34.1845 19.3844 33.7083C19.4007 33.6616 19.4194 33.6126 19.4357 33.5659C20.0519 33.6756 20.6682 33.7853 21.3124 33.8997C21.4104 33.2485 21.2283 32.6042 21.5061 31.9507C21.9753 32.9824 22.148 34.0141 22.2507 35.0574C22.218 35.0831 22.1853 35.1088 22.155 35.1345H22.1573Z" fill="#06B906"/>
<path d="M23.4294 37.6829C23.7119 38.6936 23.9219 39.7113 23.8753 40.8947C22.9369 40.3135 22.064 39.7743 21.191 39.2351C21.212 39.1838 21.2307 39.1324 21.2517 39.0811C21.8329 39.2234 22.4164 39.3635 23.021 39.5105C23.1167 38.9083 23.2194 38.2851 23.3197 37.6596C23.3571 37.6666 23.3944 37.6736 23.4318 37.6806L23.4294 37.6829Z" fill="#06B906"/>
<path d="M27.1339 35.1339C26.3963 36.0186 25.5233 36.6255 24.578 37.2253C24.4426 36.133 24.4613 35.0849 24.809 34.0486C24.9188 34.5527 25.0495 35.0522 25.1312 35.5611C25.1755 35.8412 25.2735 35.8692 25.5046 35.7665C25.9318 35.5774 26.3659 35.4047 26.8001 35.2273C26.8888 35.1923 26.9845 35.176 27.1339 35.1339Z" fill="#06B906"/>
</svg>
