<svg width="53" height="63" viewBox="0 0 53 63" fill="none" xmlns="http://www.w3.org/2000/svg">
<path d="M30.4902 29.2735C30.0958 28.795 29.7176 28.3538 29.3628 27.8963C29.3092 27.8263 29.3302 27.6606 29.3698 27.5555C29.8554 26.2437 30.3525 24.9343 30.8404 23.6248C31.5733 21.6548 32.3459 19.6965 33.0205 17.7054C33.7674 15.5043 34.1292 13.2286 33.9704 10.8944C33.9098 9.98877 33.758 9.08079 33.2772 8.28951C32.6797 7.30917 31.8674 6.55758 30.74 6.20979C30.5323 6.14443 30.3082 6.13276 29.9954 6.07908C30.6536 5.18043 31.2815 4.31913 31.5779 3.2571C30.894 3.51152 30.4622 4.10206 29.8997 4.58056C29.5659 3.98302 29.2882 3.37614 28.707 2.984C28.6836 3.99936 28.9894 4.93068 29.3885 5.862C29.0407 5.88535 28.7023 5.91102 28.3662 5.92736C26.5712 6.01606 25.2711 6.90303 24.3514 8.41089C23.6115 9.62464 23.3431 10.9738 23.1354 12.3556C22.7852 14.6851 23.063 16.9795 23.4318 19.274C23.7749 21.4051 24.1344 23.5361 24.4845 25.6672C24.5242 25.9076 24.6315 26.2017 24.5358 26.3745C24.4611 26.5075 24.1157 26.4958 23.8893 26.5332C22.7292 26.7292 21.6368 27.112 20.6261 27.7119C20.4324 27.8263 20.297 27.7773 20.1406 27.6652C18.9666 26.8319 17.8812 25.8913 16.9522 24.7942C15.8458 23.4871 14.7978 22.1286 13.7241 20.7935C13.0098 19.9065 12.2559 19.0476 11.2266 18.5341C10.0035 17.9249 8.70568 17.7101 7.48259 18.5084C6.32018 19.267 5.9794 20.4294 6.16846 21.7692C6.27583 22.5371 6.58861 23.228 6.99008 23.8816C7.90273 25.3708 9.08848 26.6102 10.4726 27.6652C11.6864 28.5896 12.9655 29.4088 14.3426 30.0671C14.3893 30.0904 14.4313 30.1208 14.4523 30.2165C14.0089 30.0881 13.5584 29.983 13.1242 29.8267C10.4633 28.872 8.17349 27.3758 6.45323 25.1C5.58493 23.9516 5.02007 22.6562 5.03407 21.195C5.03874 20.6535 5.23247 20.1026 5.3982 19.5751C5.52191 19.1853 5.53825 19.1666 5.14844 19.1106C4.56257 19.0242 3.9767 18.9309 3.39784 18.8072C3.09673 18.7418 2.80963 18.6064 2.51786 18.5014C2.51786 18.4664 2.51786 18.429 2.5202 18.394C3.13875 18.352 3.75729 18.31 4.42019 18.2656C4.27081 17.6121 4.12842 16.9935 3.98604 16.3727C4.01405 16.361 4.04439 16.3516 4.0724 16.34C4.74464 17.0822 5.18112 17.9762 5.65028 18.9659C6.05176 18.3543 6.62129 18.0556 6.738 17.2876C7.0251 15.3783 7.68332 13.56 8.46293 11.7954C9.07447 10.4112 9.81206 9.09479 10.6967 7.86236C12.3586 5.54456 14.4523 3.70992 16.9709 2.3958C19.5548 1.04433 22.3207 0.288069 25.2478 0.0896668C27.1874 -0.0433794 29.1201 -0.0457135 31.0481 0.201706C33.2259 0.481803 35.3102 1.10269 37.3036 2.02234C40.0486 3.28744 42.406 5.08006 44.4181 7.32551C46.7242 9.8954 48.2577 12.8784 48.9626 16.2583C49.3805 18.261 49.5462 20.2963 49.3501 22.3411C49.1354 24.6028 48.5892 26.7829 47.7045 28.8883C46.4161 31.9554 44.5511 34.6583 42.5461 37.2726C41.19 39.0395 39.7475 40.7411 38.3586 42.4847C36.7527 44.4991 35.1655 46.5274 33.5713 48.5512C33.3729 48.8009 33.1838 49.0577 33.0181 49.2794C32.5419 48.9526 32.1101 48.6749 31.704 48.3644C31.592 48.2781 31.4846 48.096 31.4893 47.9606C31.5733 45.3184 31.6736 42.6738 31.774 40.0315C31.774 40.0012 31.7904 39.9708 31.7974 39.9405C32.5186 40.5287 33.2352 41.1146 33.9494 41.7004C33.9915 41.6631 34.0335 41.6281 34.0755 41.5907C33.8537 40.9302 33.3472 40.419 33.0205 39.7841C33.6273 39.511 34.2365 39.2379 34.8434 38.9625C34.8294 38.9135 34.8154 38.8645 34.8037 38.8131C33.8117 38.6077 32.8454 38.8855 31.8464 39.0582C31.8464 38.6357 31.823 38.2342 31.851 37.8374C31.9491 36.3926 31.9654 34.9501 31.7694 33.5123C31.739 33.2929 31.7974 33.2088 32.0424 33.1761C34.7781 32.8097 37.4156 32.1165 39.8852 30.849C41.8949 29.8173 43.4541 28.3188 44.5208 26.3231C44.9713 25.4805 45.312 24.5958 45.1393 23.6225C45.0506 23.13 44.8406 22.6585 44.6818 22.1683C45.5128 21.7972 46.4254 21.3887 47.3381 20.9802C47.3241 20.9242 47.3101 20.8659 47.2961 20.8099C46.6192 20.6418 45.9493 20.9056 45.2794 20.9406C45.2794 20.4341 45.2864 19.9462 45.2747 19.4607C45.27 19.3067 45.2093 19.1549 45.1767 19.0009C45.0716 19.1176 44.9199 19.2156 44.8662 19.351C44.6281 19.9532 44.4181 20.5671 44.1987 21.1763C44.1473 21.321 44.096 21.4634 44.0306 21.6455C43.8229 21.5031 43.6501 21.3864 43.4798 21.2697C42.6395 20.6838 41.7268 20.6208 40.7511 20.8332C39.7241 21.0573 38.8955 21.6408 38.1672 22.3317C36.7457 23.6785 35.3849 25.0883 34.0055 26.4772C32.9434 27.5462 31.767 28.4705 30.4902 29.2758V29.2735Z" fill="#06B906"/>
<path d="M17.6081 50.1062C17.7949 50.2112 17.9699 50.3629 18.173 50.4166C18.9083 50.6103 19.6505 50.7714 20.3904 50.9418C20.4978 50.9675 20.6075 50.9885 20.7149 51.0118C20.4815 51.6024 20.1804 52.1602 20.0403 52.7578C19.8139 53.7334 19.6085 54.7301 19.5408 55.7268C19.3844 58.0353 19.7089 60.3064 20.2761 62.5471C20.3087 62.6755 20.3344 62.8039 20.3764 63C20.108 63 19.8793 63 19.6505 63C13.7031 62.9953 7.75572 62.993 1.80832 62.9883C1.48387 62.9883 1.15943 62.9883 0.834982 62.9976C0.487194 63.0046 0.22577 62.8576 0.0670485 62.5542C-0.0963416 62.2414 0.0670485 61.9893 0.256114 61.7582C1.36483 60.4091 2.47822 59.0623 3.58927 57.7155C6.2642 54.478 8.93913 51.2406 11.6141 48.0031C13.6821 45.5009 15.7525 42.9964 17.8205 40.4942C18.0913 40.165 18.3714 39.8429 18.6165 39.4975C18.6888 39.3948 18.7052 39.2081 18.6678 39.0797C18.1777 37.3501 17.7225 35.6205 18.0213 33.7952C18.1006 33.3097 18.1777 32.8242 18.2687 32.341C18.299 32.1823 18.3691 32.0282 18.4508 31.8788C18.068 34.0286 18.4718 36.0733 19.3121 38.034C19.7415 39.04 20.3017 39.9877 20.8176 40.9563C21.6275 42.4759 22.4468 43.993 23.2661 45.5079C23.4855 45.9117 23.7283 46.3015 23.9453 46.7053C24.0504 46.9014 24.1811 46.9084 24.3631 46.8477C25.8897 46.3435 27.4045 46.4042 28.8937 46.9854C29.3022 47.1465 29.6803 47.3892 30.0608 47.625C26.5362 47.0881 23.4132 47.709 21.0207 50.6967C20.5562 49.609 20.0613 48.631 19.2934 47.6973C19.1743 48.5143 19.4521 49.1655 19.6318 49.8798C18.9619 49.9101 18.3014 49.9404 17.6408 49.9708C17.6291 50.0151 17.6151 50.0595 17.6035 50.1062H17.6081Z" fill="#06B906"/>
<path d="M48.8903 45.9162C49.1844 45.9162 49.3595 45.9162 49.5368 45.9162C50.2978 45.9185 51.061 45.9092 51.822 45.9302C52.3985 45.9465 52.5922 46.1356 52.5992 46.7051C52.6156 47.8698 52.6109 49.0346 52.6132 50.2017C52.6202 53.99 52.6273 57.776 52.6296 61.5643C52.6296 61.8444 52.6249 62.1268 52.5852 62.4022C52.5409 62.7243 52.3308 62.9204 52.0064 62.9648C51.808 62.9904 51.6049 62.9928 51.4018 62.9928C46.1944 62.9951 40.9845 62.9974 35.7771 62.9998C35.4993 62.9998 35.2215 62.9998 34.8924 62.9998C34.9695 62.652 35.0442 62.3742 35.0908 62.0941C35.595 59.1531 35.8471 56.2074 35.1912 53.2524C35.1655 53.1333 35.1562 52.998 35.0955 52.8976C34.9274 52.6222 35.0185 52.4891 35.2939 52.3701C37.2546 51.5251 39.2153 50.6755 41.1689 49.8142C42.8589 49.0696 44.5464 48.3133 46.0473 47.2186C47.1093 46.4437 48.0057 45.5264 48.4585 44.2379C49.1027 42.408 48.5075 40.6223 47.1677 39.3829C46.5818 38.8414 45.9259 38.4329 45.1347 38.2672C45.0436 38.2485 44.9573 38.2042 44.8289 38.1575C46.0333 37.9007 47.4104 38.5333 48.7876 39.9548C49.3828 39.1565 49.978 38.3582 50.5732 37.5623C50.6246 37.5879 50.6736 37.6136 50.7249 37.6393C50.5149 38.2438 50.3048 38.8507 50.0877 39.4739C50.7133 39.5883 51.3108 39.7003 51.9924 39.8264C51.0307 40.2722 50.0574 40.1952 49.0583 40.3352C50.1461 42.2072 50.0177 44.0512 48.8856 45.9185L48.8903 45.9162Z" fill="#06B906"/>
<path d="M25.836 55.4485C26.4755 55.5091 27.1151 55.5722 27.778 55.6352C27.7313 55.0003 27.687 54.3864 27.6426 53.7725C27.6753 53.7655 27.708 53.7585 27.7406 53.7515C28.3732 54.6268 28.6183 55.6562 28.9124 56.7486C27.7593 56.5478 26.7603 56.1114 25.7986 55.5792C25.8103 55.5348 25.8243 55.4928 25.836 55.4485Z" fill="#06B906"/>
<path d="M30.6513 14.9537C30.2428 13.9126 30.0374 12.8856 30.0164 11.8212C30.0468 11.8072 30.0771 11.7909 30.1075 11.7769C30.3969 12.3114 30.6887 12.8459 30.9968 13.4131C31.5243 13.021 32.0425 12.6359 32.563 12.2507C32.1989 13.3361 31.4216 14.0994 30.6537 14.9537H30.6513Z" fill="#06B906"/>
<path d="M41.6101 46.987C40.5574 46.5178 39.6214 46.03 38.7718 45.248C39.4814 45.234 40.0462 45.5421 40.7045 45.6939C40.7885 45.0753 40.8725 44.4661 40.9542 43.8569C41.4771 44.8256 41.5471 45.8713 41.6101 46.987Z" fill="#06B906"/>
<path d="M36.8181 29.1286C36.6033 28.0268 36.6313 26.9811 36.8858 25.9401C36.9161 25.9331 36.9488 25.9261 36.9791 25.9191C37.1402 26.5073 37.2989 27.0979 37.4716 27.7257C38.0762 27.4666 38.6597 27.2169 39.2456 26.9671C39.2619 26.9975 39.2783 27.0278 39.2946 27.0605C38.5874 27.8705 37.7447 28.5147 36.8181 29.1286Z" fill="#06B906"/>
<path d="M25.4135 10.2265C25.871 10.4389 26.3332 10.642 26.786 10.8637C27.1455 11.0411 27.1688 11.0388 27.2598 10.635C27.3462 10.2545 27.4279 9.87407 27.5189 9.4936C27.5493 9.36989 27.6006 9.24852 27.6776 9.13415C27.9647 10.2032 27.9764 11.2746 27.8714 12.4323C26.9284 11.7741 26.0344 11.1742 25.3528 10.3269C25.3715 10.2919 25.3925 10.2592 25.4112 10.2242L25.4135 10.2265Z" fill="#06B906"/>
<path d="M33.3776 57.9043C32.4486 57.2927 31.6037 56.6275 30.8871 55.8152C30.9034 55.7825 30.9174 55.7498 30.9338 55.7172C31.2956 55.8642 31.6574 56.0113 32.0168 56.1606C32.2386 56.254 32.4603 56.3497 32.682 56.4454C32.7521 56.2283 32.8221 56.0113 32.8898 55.7942C32.9995 55.4464 33.1069 55.0986 33.2212 54.7275C33.5177 55.2106 33.5644 56.254 33.3776 57.9043Z" fill="#06B906"/>
<path d="M25.8827 15.4409C26.2515 15.7957 26.6179 16.1482 26.9867 16.503C27.2505 16.7551 27.2855 16.7387 27.4699 16.433C27.743 15.9801 28.0394 15.5437 28.3755 15.0231C28.4106 15.7817 28.0674 16.9185 27.4629 18.1649C26.9774 17.8801 26.004 16.2906 25.885 15.4409H25.8827Z" fill="#06B906"/>
<path d="M11.1355 22.0236C10.1458 22.4648 9.20518 22.9433 8.07312 22.9876C8.32521 22.7962 8.57496 22.6025 8.82938 22.4157C9.0838 22.229 9.34289 22.0493 9.59498 21.8719C9.10714 21.377 8.66366 20.9266 8.2225 20.4784L8.28319 20.4037C9.32655 20.7422 10.2229 21.3467 11.1378 22.0213L11.1355 22.0236Z" fill="#06B906"/>
<path d="M23.4295 32.0071C22.853 31.0851 22.5192 30.0861 22.3115 29.0404C22.3442 29.0194 22.3792 28.9984 22.4118 28.9797C22.776 29.4815 23.1401 29.981 23.4925 30.4689C23.9454 30.0184 24.4005 29.5656 24.8767 29.0894C24.9374 29.6099 24.1928 31.0828 23.4272 32.0071H23.4295Z" fill="#06B906"/>
<path d="M30.9828 50.0494C30.8404 51.1348 30.3922 52.1104 29.9301 53.1165C29.2555 52.2108 28.651 51.3215 28.4012 50.2151C28.777 50.5909 29.1598 50.9574 29.5239 51.3448C29.7597 51.5946 29.8134 51.5993 30.0094 51.3075C30.3035 50.8663 30.607 50.4322 30.9057 49.9957L30.9851 50.0494H30.9828Z" fill="#06B906"/>
<path d="M42.4901 25.3098C41.344 25.1138 40.3917 24.5466 39.437 23.9093C40.4384 23.3678 41.4234 22.922 42.5368 22.7889C42.0256 23.1717 41.5144 23.5569 40.9729 23.963C41.4747 24.4088 41.9812 24.8593 42.4877 25.3098H42.4901Z" fill="#06B906"/>
<path d="M11.4273 24.5344C11.9898 24.7702 12.55 25.0059 13.1452 25.2557C13.3063 24.6488 13.4603 24.0676 13.6144 23.4864C13.6517 23.4911 13.6914 23.4957 13.7288 23.5004C13.9832 24.5087 13.9622 25.5311 13.8478 26.6141C12.8581 26.082 12.0669 25.3957 11.3666 24.5998C11.3876 24.5764 11.4063 24.5531 11.4273 24.5321V24.5344Z" fill="#06B906"/>
<path d="M43.4098 42.0438C43.8602 41.6026 44.3014 41.1731 44.7402 40.7437C44.7636 40.7623 44.7892 40.781 44.8126 40.7997C44.4998 41.8174 43.9396 42.6997 43.2557 43.6076C42.8099 42.5876 42.3454 41.6586 42.238 40.6083L42.3337 40.5499C42.6792 41.0284 43.0223 41.5069 43.4098 42.0461V42.0438Z" fill="#06B906"/>
<path d="M22.1574 35.1345C21.2331 34.6583 20.3088 34.1845 19.3844 33.7083C19.4008 33.6616 19.4194 33.6126 19.4358 33.5659C20.052 33.6756 20.6682 33.7853 21.3124 33.8997C21.4105 33.2485 21.2284 32.6042 21.5062 31.9507C21.9753 32.9824 22.1481 34.0141 22.2508 35.0574C22.2181 35.0831 22.1854 35.1088 22.1551 35.1345H22.1574Z" fill="#06B906"/>
<path d="M23.4294 37.6829C23.7119 38.6936 23.9219 39.7113 23.8753 40.8947C22.9369 40.3135 22.064 39.7743 21.191 39.2351C21.212 39.1838 21.2307 39.1324 21.2517 39.0811C21.8329 39.2234 22.4164 39.3635 23.021 39.5105C23.1167 38.9083 23.2194 38.2851 23.3197 37.6596C23.3571 37.6666 23.3944 37.6736 23.4318 37.6806L23.4294 37.6829Z" fill="#06B906"/>
<path d="M27.1338 35.1339C26.3962 36.0186 25.5232 36.6255 24.5779 37.2253C24.4425 36.133 24.4612 35.0849 24.809 34.0486C24.9187 34.5527 25.0494 35.0522 25.1311 35.5611C25.1754 35.8412 25.2735 35.8692 25.5046 35.7665C25.9317 35.5774 26.3659 35.4047 26.8 35.2273C26.8887 35.1923 26.9844 35.176 27.1338 35.1339Z" fill="#06B906"/>
</svg>
