<svg width="24" height="24" viewBox="0 0 24 24" fill="none" xmlns="http://www.w3.org/2000/svg">
<path d="M12 15.1885C12.4187 15.1885 12.8332 15.106 13.22 14.9458C13.6068 14.7856 13.9582 14.5508 14.2543 14.2548C14.5503 13.9587 14.7851 13.6073 14.9453 13.2205C15.1056 12.8337 15.188 12.4192 15.188 12.0005C15.188 11.5818 15.1056 11.1673 14.9453 10.7805C14.7851 10.3937 14.5503 10.0423 14.2543 9.74624C13.9582 9.45021 13.6068 9.21538 13.22 9.05517C12.8332 8.89496 12.4187 8.8125 12 8.8125C11.1545 8.8125 10.3436 9.14838 9.74576 9.74624C9.14789 10.3441 8.81201 11.155 8.81201 12.0005C8.81201 12.846 9.14789 13.6569 9.74576 14.2548C10.3436 14.8526 11.1545 15.1885 12 15.1885Z" stroke="#AAAAAA" stroke-width="2" stroke-linecap="round" stroke-linejoin="round"/>
<path d="M16.5 3H7.5C6.30653 3 5.16193 3.47411 4.31802 4.31802C3.47411 5.16193 3 6.30653 3 7.5V16.5C3 17.6935 3.47411 18.8381 4.31802 19.682C5.16193 20.5259 6.30653 21 7.5 21H16.5C17.6935 21 18.8381 20.5259 19.682 19.682C20.5259 18.8381 21 17.6935 21 16.5V7.5C21 6.30653 20.5259 5.16193 19.682 4.31802C18.8381 3.47411 17.6935 3 16.5 3Z" stroke="#AAAAAA" stroke-width="2" stroke-linecap="round" stroke-linejoin="round"/>
<path d="M16.875 8.625C17.2728 8.625 17.6544 8.46696 17.9357 8.18566C18.217 7.90436 18.375 7.52282 18.375 7.125C18.375 6.72718 18.217 6.34564 17.9357 6.06434C17.6544 5.78304 17.2728 5.625 16.875 5.625C16.4772 5.625 16.0956 5.78304 15.8143 6.06434C15.533 6.34564 15.375 6.72718 15.375 7.125C15.375 7.52282 15.533 7.90436 15.8143 8.18566C16.0956 8.46696 16.4772 8.625 16.875 8.625Z" fill="#AAAAAA"/>
</svg>
